<svg width="91" height="24" viewBox="0 0 91 24" fill="none" xmlns="http://www.w3.org/2000/svg">
<path d="M32.1948 19.7956V23.12C32.1948 23.2834 32.1364 23.4217 32.0231 23.5359C31.9089 23.6501 31.7706 23.7067 31.6081 23.7067H19.409C19.2289 23.7067 19.0868 23.6501 18.981 23.5359C18.8752 23.4217 18.8223 23.2834 18.8223 23.12V6.39896C18.8223 6.23557 18.8752 6.09725 18.981 5.98307C19.0868 5.86981 19.2289 5.81226 19.409 5.81226H23.0759C23.2393 5.81226 23.3776 5.86981 23.4918 5.98307C23.6059 6.09725 23.6626 6.23557 23.6626 6.39896V18.6222C23.6626 18.7847 23.7155 18.9239 23.8222 19.0381C23.9271 19.1514 24.0701 19.2089 24.2493 19.2089H31.6081C31.7706 19.2089 31.9089 19.2665 32.0231 19.3798C32.1364 19.4939 32.1948 19.6323 32.1948 19.7956Z" fill="#2C2E35"/>
<path d="M36.4297 6.42307C36.4297 6.26061 36.4863 6.12229 36.5996 6.00811C36.7138 5.89392 36.8511 5.83636 37.0127 5.83636H40.6861C40.8485 5.83636 40.9869 5.89392 41.1001 6.00811C41.2134 6.12229 41.27 6.26061 41.27 6.42307V16.3237C41.27 16.9596 41.373 17.485 41.5763 17.9009C41.7815 18.3168 42.0349 18.6426 42.3376 18.8784C42.6402 19.1152 42.9642 19.2823 43.3077 19.3797C43.6512 19.4772 43.9621 19.5264 44.2406 19.5264C44.5182 19.5264 44.8292 19.4772 45.1727 19.3797C45.5162 19.2823 45.8365 19.1152 46.1307 18.8784C46.425 18.6426 46.6747 18.3168 46.8799 17.9009C47.0832 17.485 47.1862 16.9596 47.1862 16.3237V6.42307C47.1862 6.26061 47.2429 6.12229 47.3561 6.00811C47.4694 5.89392 47.6068 5.83636 47.7702 5.83636H51.4426C51.6051 5.83636 51.7425 5.89392 51.8567 6.00811C51.969 6.12229 52.0265 6.26061 52.0265 6.42307V16.3237C52.0265 17.4813 51.8427 18.5322 51.4779 19.4772C51.1121 20.4232 50.5867 21.2299 49.9035 21.8983C49.2193 22.5657 48.3977 23.0828 47.4378 23.4504C46.4779 23.8171 45.4113 24 44.2406 24C43.0682 24 42.0034 23.8171 41.0435 23.4504C40.0827 23.0828 39.2611 22.5657 38.5778 21.8983C37.8937 21.2299 37.3654 20.4232 36.9913 19.4772C36.6163 18.5322 36.4297 17.4813 36.4297 16.3237V6.42307Z" fill="#2C2E35"/>
<path d="M61.1011 10.8976V11.9244C61.1011 12.0868 61.1587 12.2251 61.2728 12.3393C61.387 12.4535 61.5253 12.5101 61.6887 12.5101H69.1182C69.2806 12.5101 69.4199 12.5677 69.5331 12.6819C69.6473 12.7961 69.7049 12.9344 69.7049 13.0968V16.4704C69.7049 16.6338 69.6473 16.7721 69.5331 16.8863C69.4199 17.0005 69.2806 17.058 69.1182 17.058H61.6887C61.5253 17.058 61.387 17.1146 61.2728 17.2288C61.1587 17.343 61.1011 17.4813 61.1011 17.6438V18.573C61.1011 18.7364 61.1587 18.8747 61.2728 18.9889C61.387 19.1031 61.5253 19.1597 61.6887 19.1597H69.2918C69.4542 19.1597 69.5925 19.2173 69.7067 19.3306C69.8209 19.4457 69.8785 19.584 69.8785 19.7464V23.12C69.8785 23.2834 69.8209 23.4217 69.7067 23.5359C69.5925 23.6501 69.4542 23.7067 69.2918 23.7067H56.8475C56.685 23.7067 56.5467 23.6501 56.4325 23.5359C56.3183 23.4217 56.2617 23.2834 56.2617 23.12V6.39896C56.2617 6.23557 56.3183 6.09725 56.4325 5.98307C56.5467 5.86981 56.685 5.81226 56.8475 5.81226H69.2918C69.4542 5.81226 69.5925 5.86981 69.7067 5.98307C69.8209 6.09725 69.8785 6.23557 69.8785 6.39896V9.7233C69.8785 9.88668 69.8209 10.025 69.7067 10.1392C69.5925 10.2534 69.4542 10.31 69.2918 10.31H61.6887C61.5253 10.31 61.387 10.3676 61.2728 10.4808C61.1587 10.5959 61.1011 10.7342 61.1011 10.8976Z" fill="#2C2E35"/>
<path d="M90.9106 6.39899V23.12C90.9106 23.2834 90.853 23.4217 90.7388 23.5359C90.6265 23.6501 90.4872 23.7067 90.3248 23.7067H86.7136C86.5511 23.7067 86.3803 23.6575 86.2021 23.56C86.0229 23.4626 85.8846 23.3484 85.7871 23.2184L79.4197 14.2461C79.3222 14.1162 79.2201 14.0623 79.1143 14.0874C79.0085 14.1115 78.9565 14.2053 78.9565 14.3687V23.12C78.9565 23.2834 78.898 23.4217 78.7838 23.5359C78.6687 23.6501 78.5294 23.7067 78.3661 23.7067H74.7057C74.5423 23.7067 74.4021 23.6501 74.2879 23.5359C74.1728 23.4217 74.1152 23.2834 74.1152 23.12V6.39899C74.1152 6.2356 74.1728 6.09729 74.287 5.9831C74.4002 5.86985 74.5395 5.81229 74.7029 5.81229H78.3688C78.5322 5.81229 78.703 5.85685 78.8831 5.94689C79.0623 6.03601 79.2006 6.14648 79.2981 6.27645L85.6544 15.2487C85.7528 15.3787 85.854 15.4363 85.9598 15.4195C86.0656 15.4038 86.1195 15.3137 86.1195 15.1503V6.39899C86.1195 6.2356 86.1752 6.09729 86.2893 5.9831C86.4035 5.86985 86.5419 5.81229 86.7052 5.81229H90.3229C90.4863 5.81229 90.6256 5.86985 90.7388 5.9831C90.853 6.09729 90.9106 6.2356 90.9106 6.39899Z" fill="#2C2E35"/>
<path d="M63.1208 2.24934C63.1208 3.49144 62.1145 4.49774 60.8724 4.49774C59.6303 4.49774 58.623 3.49144 58.623 2.24934C58.623 1.00723 59.6303 0 60.8724 0C62.1145 0 63.1208 1.00723 63.1208 2.24934Z" fill="#F2E4CB"/>
<path d="M67.5212 2.24934C67.5212 3.49144 66.5149 4.49774 65.2728 4.49774C64.0307 4.49774 63.0234 3.49144 63.0234 2.24934C63.0234 1.00723 64.0307 0 65.2728 0C66.5149 0 67.5212 1.00723 67.5212 2.24934Z" fill="#F2E4CB"/>
<path fill-rule="evenodd" clip-rule="evenodd" d="M14.3796 16.8863C14.517 17.2938 14.5866 17.758 14.5866 18.2797C14.5866 19.3389 14.4205 20.2153 14.0863 20.9078C13.7511 21.6012 13.299 22.1545 12.729 22.5704C12.1581 22.9854 11.5027 23.2787 10.761 23.4505C10.0193 23.6213 9.24038 23.7067 8.42624 23.7067H0.677476C0.51409 23.7067 0.374841 23.6501 0.261585 23.5359C0.1474 23.4217 0.0898438 23.2834 0.0898438 23.12V6.39896C0.0898438 6.23557 0.1474 6.09725 0.261585 5.984C0.374841 5.86981 0.51409 5.81226 0.677476 5.81226H8.42624C9.24038 5.81226 10.0193 5.89859 10.761 6.0694C11.5027 6.24022 12.1581 6.53357 12.729 6.94946C13.299 7.36442 13.7511 7.91863 14.0863 8.61116C14.4205 9.30462 14.5866 10.18 14.5866 11.2393C14.5866 11.761 14.517 12.2251 14.3796 12.6327C14.2404 13.0402 14.0612 13.3985 13.8412 13.7086C13.6212 14.0177 13.3807 14.2786 13.1199 14.4912C13.0001 14.5877 12.8813 14.6759 12.7615 14.7595C12.8813 14.843 13.0001 14.9312 13.1199 15.0287C13.3807 15.2403 13.6212 15.5012 13.8412 15.8103C14.0612 16.1204 14.2404 16.4787 14.3796 16.8863ZM9.49568 16.9596C9.49568 15.8772 8.73073 14.9748 7.71235 14.7595H7.7105C7.71143 14.7595 7.71143 14.7595 7.71143 14.7595C7.71143 14.7595 7.71143 14.7595 7.7105 14.7595H7.71235C8.73073 14.545 9.49568 13.6418 9.49568 12.5593C9.49568 11.3172 8.48844 10.3109 7.24633 10.3109C6.00423 10.3109 4.99699 11.3172 4.99699 12.5593C4.99699 13.6418 5.76194 14.545 6.78124 14.7595H6.78217C6.78217 14.7595 6.78217 14.7595 6.78124 14.7595C6.78217 14.7595 6.78217 14.7595 6.78217 14.7595H6.78124C5.76194 14.9748 4.99699 15.8772 4.99699 16.9596C4.99699 18.2017 6.00423 19.2089 7.24633 19.2089C8.48844 19.2089 9.49568 18.2017 9.49568 16.9596Z" fill="#2C2E35"/>
<script xmlns=""/></svg>