<?xml version="1.0" standalone="no"?>
<!DOCTYPE svg PUBLIC "-//W3C//DTD SVG 20010904//EN"
 "http://www.w3.org/TR/2001/REC-SVG-20010904/DTD/svg10.dtd">
<svg version="1.0" xmlns="http://www.w3.org/2000/svg"
 width="841.000000pt" height="841.000000pt" viewBox="0 0 841.000000 841.000000"
 preserveAspectRatio="xMidYMid meet">
<metadata>
Created by potrace 1.14, written by Peter Selinger 2001-2017
</metadata>
<g transform="translate(0.000000,841.000000) scale(0.100000,-0.100000)"
fill="#000000" stroke="none">
<path d="M3975 7944 c-606 -31 -1190 -201 -1685 -489 -471 -273 -788 -552
-1147 -1007 -224 -283 -441 -699 -573 -1096 -240 -724 -252 -1500 -35 -2237
236 -806 744 -1524 1407 -1991 54 -38 130 -92 170 -120 332 -233 889 -455
1348 -538 500 -89 989 -83 1492 19 447 91 943 304 1318 565 155 108 203 144
295 219 314 258 653 655 841 986 282 497 430 931 501 1470 26 199 25 700 0
900 -35 266 -76 448 -157 701 -213 659 -552 1182 -1086 1671 -373 342 -928
653 -1409 788 -284 80 -497 123 -720 144 -114 12 -456 20 -560 15z m535 -99
c502 -51 952 -187 1384 -417 259 -139 436 -258 636 -431 696 -601 1112 -1328
1265 -2212 140 -810 -20 -1723 -425 -2418 -147 -252 -179 -300 -338 -502 -99
-126 -407 -440 -527 -536 -101 -82 -282 -209 -399 -281 -56 -34 -103 -66 -107
-70 -8 -12 -262 -139 -369 -185 -222 -96 -544 -195 -780 -242 -403 -79 -891
-85 -1305 -15 -210 35 -522 122 -735 205 -122 48 -489 222 -500 239 -3 3 -49
35 -104 69 -264 165 -433 299 -650 514 -304 302 -523 608 -716 1002 -141 288
-232 555 -295 870 -50 249 -66 391 -72 660 -21 913 274 1751 866 2460 98 118
322 342 436 436 50 41 95 79 100 85 21 24 196 146 312 218 500 311 1008 485
1603 550 171 19 541 19 720 1z"/>
<path d="M3895 7803 c-581 -48 -1068 -198 -1565 -481 -121 -69 -335 -210 -373
-246 -12 -12 -71 -62 -132 -111 -60 -49 -164 -143 -230 -209 -458 -458 -757
-964 -938 -1586 -135 -463 -173 -1016 -102 -1505 72 -502 268 -1041 507 -1397
21 -31 38 -60 38 -63 0 -9 76 -120 144 -210 190 -252 444 -511 674 -688 224
-172 555 -370 797 -474 283 -123 690 -232 1025 -275 142 -18 710 -18 840 0
505 71 991 229 1345 440 204 121 256 154 370 236 386 276 732 655 990 1086
250 417 407 872 481 1385 21 151 30 624 14 797 -69 768 -380 1493 -885 2068
-110 124 -289 300 -399 390 -43 36 -100 83 -125 105 -57 50 -242 172 -375 249
-483 279 -948 428 -1500 481 -141 13 -483 18 -601 8z m596 -113 c232 -23 506
-79 729 -147 300 -92 789 -334 970 -479 8 -7 80 -63 160 -125 379 -294 735
-727 951 -1159 173 -346 267 -629 333 -995 39 -215 50 -358 49 -620 -1 -398
-54 -733 -177 -1107 -127 -390 -370 -825 -630 -1133 -28 -33 -64 -76 -80 -95
-114 -136 -421 -410 -600 -535 -588 -409 -1238 -624 -1942 -642 -359 -9 -639
21 -967 103 -210 53 -588 189 -637 229 -8 7 -36 22 -63 33 -111 49 -382 211
-517 311 -629 464 -1092 1126 -1304 1865 -91 318 -126 549 -133 898 -7 343 13
564 79 858 107 479 292 883 610 1332 126 178 412 475 599 623 234 185 254 199
384 278 418 254 892 423 1360 486 83 11 168 22 190 24 95 9 542 6 636 -3z"/>
<path d="M3950 7654 c-450 -33 -837 -130 -1254 -316 -359 -160 -761 -445
-1041 -740 -358 -376 -601 -765 -772 -1233 -332 -909 -263 -1944 187 -2803
245 -466 595 -873 1028 -1196 144 -107 291 -194 532 -314 433 -216 819 -319
1325 -353 393 -26 841 28 1235 149 293 91 623 249 911 438 281 184 624 510
850 809 72 95 234 354 299 477 188 361 312 765 367 1202 26 202 23 641 -6 851
-56 411 -166 767 -353 1135 -281 553 -704 1014 -1266 1378 -115 75 -390 212
-552 275 -418 164 -776 234 -1225 241 -115 2 -235 2 -265 0z m183 -99 c-3 -9
-8 -14 -10 -11 -3 3 -2 9 2 15 9 16 15 13 8 -4z m280 -5 c-3 -11 -7 -20 -9
-20 -2 0 -4 9 -4 20 0 11 4 20 9 20 5 0 7 -9 4 -20z m-570 -10 c-3 -11 -7 -20
-9 -20 -2 0 -4 9 -4 20 0 11 4 20 9 20 5 0 7 -9 4 -20z m134 5 c0 -8 -4 -15
-9 -15 -4 0 -8 7 -8 15 0 8 4 15 8 15 5 0 9 -7 9 -15z m-97 -5 c0 -5 -4 -10
-10 -10 -5 0 -10 5 -10 10 0 6 5 10 10 10 6 0 10 -4 10 -10z m390 0 c0 -5 -4
-10 -10 -10 -5 0 -10 5 -10 10 0 6 5 10 10 10 6 0 10 -4 10 -10z m270 -10 c0
-5 -5 -10 -11 -10 -5 0 -7 5 -4 10 3 6 8 10 11 10 2 0 4 -4 4 -10z m215 0 c3
-6 -1 -7 -9 -4 -11 4 -16 0 -16 -12 0 -9 -3 -15 -6 -11 -9 8 3 37 15 37 5 0
13 -4 16 -10z m-1198 -22 c-3 -8 -6 -5 -6 6 -1 11 2 17 5 13 3 -3 4 -12 1 -19z
m38 12 c3 -5 1 -10 -4 -10 -6 0 -11 5 -11 10 0 6 2 10 4 10 3 0 8 -4 11 -10z
m325 -30 c0 -31 -15 -30 -16 1 -1 15 3 26 7 23 5 -3 9 -14 9 -24z m290 18 c0
-7 -4 -19 -9 -27 -7 -10 -9 -7 -8 12 2 26 17 39 17 15z m271 -1 c-1 -4 -1 -13
-1 -20 0 -7 -10 -18 -22 -26 -22 -14 -23 -13 -5 6 11 12 15 27 11 38 -5 12 -3
16 5 14 7 -3 12 -8 12 -12z m-841 -32 c0 -8 -2 -15 -4 -15 -2 0 -6 7 -10 15
-3 8 -1 15 4 15 6 0 10 -7 10 -15z m1220 -5 c0 -5 -5 -10 -11 -10 -5 0 -7 5
-4 10 3 6 8 10 11 10 2 0 4 -4 4 -10z m133 -10 c3 -11 1 -20 -4 -20 -5 0 -9 9
-9 20 0 11 2 20 4 20 2 0 6 -9 9 -20z m-198 1 c3 -5 -2 -17 -11 -25 -19 -20
-31 -21 -14 -1 6 8 9 19 5 25 -3 5 -2 10 4 10 5 0 12 -4 16 -9z m-1512 -31
c-3 -11 -7 -20 -9 -20 -2 0 -4 9 -4 20 0 11 4 20 9 20 5 0 7 -9 4 -20z m37 -1
c0 -6 -4 -7 -10 -4 -5 3 -10 11 -10 16 0 6 5 7 10 4 6 -3 10 -11 10 -16z
m1825 1 c3 -5 1 -10 -4 -10 -6 0 -11 5 -11 10 0 6 2 10 4 10 3 0 8 -4 11 -10z
m-1775 -45 c0 -5 -5 -3 -10 5 -5 8 -10 20 -10 25 0 6 5 3 10 -5 5 -8 10 -19
10 -25z m1740 25 c0 -5 -5 -10 -11 -10 -5 0 -7 5 -4 10 3 6 8 10 11 10 2 0 4
-4 4 -10z m-60 -8 c0 -10 -22 -32 -32 -32 -5 0 -3 9 4 20 13 20 28 27 28 12z
m-2027 -27 c-3 -9 -8 -14 -10 -11 -3 3 -2 9 2 15 9 16 15 13 8 -4z m2352 -35
c3 -5 1 -10 -4 -10 -6 0 -11 5 -11 10 0 6 2 10 4 10 3 0 8 -4 11 -10z m-85
-18 c0 -10 -22 -32 -32 -32 -5 0 -3 9 4 20 13 20 28 27 28 12z m60 -2 c0 -5
-10 -10 -22 -9 -22 0 -22 1 -3 9 11 5 21 9 23 9 1 1 2 -3 2 -9z m-2584 -60 c0
-11 -4 -20 -8 -20 -10 0 -11 24 -1 33 9 9 9 10 9 -13z m39 0 c3 -5 2 -10 -4
-10 -5 0 -13 5 -16 10 -3 6 -2 10 4 10 5 0 13 -4 16 -10z m1400 -38 c-65 -3
-85 -14 -85 -45 0 -11 -3 -18 -6 -14 -4 3 -4 17 0 31 8 31 48 44 109 36 39 -5
38 -5 -18 -8z m1341 2 c-3 -9 -6 -18 -6 -20 0 -2 -8 -4 -17 -3 -11 0 -13 3 -5
6 6 2 12 11 12 19 0 8 5 14 11 14 6 0 8 -7 5 -16z m-2694 -16 c-7 -7 -12 -8
-12 -2 0 14 12 26 19 19 2 -3 -1 -11 -7 -17z m2765 16 c-3 -3 -12 -4 -19 -1
-8 3 -5 6 6 6 11 1 17 -2 13 -5z m-1257 -49 c15 -22 53 -83 85 -135 31 -52 66
-103 77 -112 11 -10 18 -25 16 -35 -3 -14 -92 114 -134 192 -31 60 -72 109
-99 121 l-30 13 29 -2 c21 -1 35 -12 56 -42z m-98 10 c44 -6 49 -10 83 -63
129 -204 208 -322 213 -318 3 3 13 78 22 167 10 88 22 165 27 169 12 13 174
-10 179 -25 5 -11 -4 -99 -52 -510 -22 -195 -13 -178 -92 -170 -37 4 -72 10
-79 14 -13 7 -82 110 -185 274 -34 53 -64 97 -68 97 -4 0 -12 -48 -19 -107
-20 -192 -23 -210 -31 -223 -6 -10 -25 -11 -90 -2 -45 5 -85 14 -90 19 -12 13
67 675 82 684 7 5 22 6 33 4 11 -2 41 -7 67 -10z m1228 5 c-8 -5 -19 -10 -25
-10 -5 0 -3 5 5 10 8 5 20 10 25 10 6 0 3 -5 -5 -10z m-682 -36 c15 -10 22
-24 22 -46 0 -34 -67 -627 -75 -665 -6 -25 -31 -53 -48 -53 -7 0 -2 8 11 18
21 16 25 33 37 138 8 65 26 217 40 337 15 120 23 226 20 237 -9 30 -32 38
-128 46 -94 7 -116 0 -118 -40 -1 -17 -2 -18 -6 -3 -5 21 13 46 40 56 27 10
178 -9 205 -25z m-2248 6 c8 -5 12 -11 10 -14 -3 -2 -14 2 -24 10 -22 15 -10
19 14 4z m3200 -6 c0 -2 -7 -4 -15 -4 -8 0 -15 4 -15 10 0 5 7 7 15 4 8 -4 15
-8 15 -10z m-2120 -31 c17 -21 106 -135 196 -253 89 -118 175 -228 189 -244
27 -30 35 -57 11 -37 -7 6 -32 39 -55 72 -23 33 -46 66 -52 72 -5 7 -50 64
-100 127 -50 63 -98 124 -108 135 -9 11 -34 47 -56 79 -21 32 -48 62 -60 68
-25 11 -180 -23 -201 -44 -8 -7 -20 -43 -28 -78 -8 -36 -14 -58 -15 -49 -2 30
22 129 33 138 14 12 152 49 187 50 19 1 36 -10 59 -36z m467 -45 c-2 -13 -4
-3 -4 22 0 25 2 35 4 23 2 -13 2 -33 0 -45z m-485 5 c14 -21 70 -95 124 -164
54 -69 124 -159 154 -198 30 -40 74 -97 98 -127 24 -30 42 -62 40 -71 -2 -11
-26 -22 -78 -34 -41 -10 -83 -19 -92 -19 -10 0 -34 24 -55 55 -21 30 -45 54
-53 55 -22 0 -244 -51 -253 -59 -4 -4 -13 -38 -20 -77 l-12 -69 -85 -21 c-109
-27 -113 -24 -94 76 30 153 85 448 101 540 8 52 21 100 27 107 11 12 112 40
152 42 14 1 30 -12 46 -36z m2157 11 c-17 -21 -31 -17 -17 5 7 11 16 17 20 14
5 -2 4 -11 -3 -19z m-1222 -61 c-2 -16 -4 -5 -4 22 0 28 2 40 4 28 2 -13 2
-35 0 -50z m1293 57 c0 -5 -12 -10 -27 -10 -22 0 -25 2 -13 10 20 13 40 13 40
0z m-130 -20 c-8 -5 -22 -10 -30 -10 -13 0 -13 1 0 10 8 5 22 10 30 10 13 0
13 -1 0 -10z m-337 -132 c255 -121 266 -129 245 -190 -20 -57 -62 -132 -78
-136 -12 -4 -12 -1 2 14 9 11 31 49 48 86 26 55 29 71 20 88 -6 12 -56 42
-117 70 -58 28 -106 50 -108 50 -1 0 -60 27 -131 61 -88 42 -135 59 -151 54
-15 -3 -33 -25 -52 -63 -17 -31 -30 -53 -31 -49 0 12 40 90 58 110 8 9 25 17
37 17 12 0 128 -50 258 -112z m-1286 55 c-3 -10 -5 -2 -5 17 0 19 2 27 5 18 2
-10 2 -26 0 -35z m1933 27 c0 -5 -7 -7 -15 -4 -8 4 -15 1 -15 -5 0 -6 5 -11
11 -11 5 0 7 -5 4 -10 -9 -15 -25 -2 -25 21 0 12 7 19 20 19 11 0 20 -4 20
-10z m-797 -55 c225 -105 367 -174 367 -178 0 -21 -62 -137 -73 -137 -8 0 -75
29 -149 65 -75 36 -141 65 -147 65 -6 0 -20 -18 -31 -41 l-21 -40 136 -65 c74
-35 135 -69 135 -74 0 -22 -61 -130 -73 -130 -6 0 -37 12 -67 26 -30 14 -88
41 -128 60 l-72 33 -20 -39 c-11 -22 -20 -44 -20 -50 0 -6 19 -19 43 -29 114
-50 255 -120 262 -130 3 -7 -7 -41 -24 -77 -28 -60 -33 -66 -55 -60 -13 3
-124 54 -245 113 -156 76 -221 112 -221 124 0 9 31 81 69 160 38 79 97 203
130 274 67 140 87 175 100 175 4 0 51 -20 104 -45z m-686 -17 c-2 -13 -4 -5
-4 17 -1 22 1 32 4 23 2 -10 2 -28 0 -40z m-1233 -264 c-26 -137 -47 -274 -48
-303 -1 -49 2 -56 24 -68 26 -13 15 -18 -15 -7 -29 11 -35 47 -20 120 15 77
30 158 71 378 16 82 30 144 31 139 2 -6 -17 -122 -43 -259z m773 219 c-3 -10
-5 -2 -5 17 0 19 2 27 5 18 2 -10 2 -26 0 -35z m1941 35 c-3 -7 -18 -14 -34
-15 -20 -1 -22 0 -6 4 12 2 22 9 22 14 0 5 5 9 11 9 6 0 9 -6 7 -12z m75 -13
c-13 -9 -29 -12 -40 -8 -15 6 -13 9 12 14 48 11 51 10 28 -6z m-1127 -131
c-30 -60 -55 -106 -55 -102 -1 11 103 218 107 214 2 -2 -22 -53 -52 -112z
m1237 76 c3 -11 1 -20 -4 -20 -5 0 -9 9 -9 20 0 11 2 20 4 20 2 0 6 -9 9 -20z
m-3350 -7 c-7 -2 -19 -2 -25 0 -7 3 -2 5 12 5 14 0 19 -2 13 -5z m139 -5 c22
-6 58 -29 81 -51 l42 -39 -40 30 c-53 38 -76 50 -122 61 -21 5 -30 9 -19 10
10 1 36 -4 58 -11z m1075 -40 c-2 -13 -4 -5 -4 17 -1 22 1 32 4 23 2 -10 2
-28 0 -40z m-1287 27 c-46 -18 -64 -17 -25 0 17 8 37 14 45 14 8 0 -1 -7 -20
-14z m-613 -17 c-3 -8 -6 -5 -6 6 -1 11 2 17 5 13 3 -3 4 -12 1 -19z m843 -24
c33 -18 62 -45 86 -80 31 -45 37 -63 42 -123 8 -119 -37 -187 -190 -284 -32
-20 -58 -40 -58 -44 0 -4 18 -37 40 -74 22 -37 40 -70 40 -73 0 -9 -139 -96
-153 -96 -6 0 -49 60 -94 133 -45 73 -125 201 -177 286 -53 85 -96 157 -96
161 0 8 130 92 238 155 140 81 225 92 322 39z m-294 18 c-2 -4 -57 -39 -121
-77 -64 -39 -129 -82 -145 -97 -17 -15 -30 -23 -30 -19 0 16 49 52 170 125
132 79 134 81 126 68z m3509 -21 c-3 -6 -11 -11 -17 -11 -6 0 -6 6 2 15 14 17
26 13 15 -4z m105 -8 c0 -3 -7 -2 -15 1 -9 3 -18 -1 -21 -9 -3 -7 -12 -11 -21
-8 -12 5 -11 9 8 18 21 12 49 10 49 -2z m-2273 -65 c-2 -13 -4 -5 -4 17 -1 22
1 32 4 23 2 -10 2 -28 0 -40z m-893 -46 c24 -70 21 -153 -9 -217 -14 -29 -33
-59 -42 -66 -9 -8 -1 13 18 46 31 54 34 67 34 140 0 70 -4 86 -29 130 -24 41
-25 47 -8 31 11 -10 28 -39 36 -64z m-1187 62 c-3 -3 -12 -4 -19 -1 -8 3 -5 6
6 6 11 1 17 -2 13 -5z m2376 -56 c51 -80 51 -82 39 -74 -6 4 -21 24 -33 46
-13 22 -26 40 -30 40 -3 0 -12 -50 -19 -112 -13 -111 -29 -148 -62 -148 -7 0
-2 9 11 19 21 16 25 32 39 149 8 73 17 132 18 132 2 0 18 -24 37 -52z m1413 9
c-38 -24 -126 -128 -126 -149 0 -4 14 -23 31 -43 35 -39 25 -49 -11 -10 -37
39 -31 74 26 140 27 31 58 61 69 65 28 12 33 11 11 -3z m-1719 -59 c-2 -13 -4
-3 -4 22 0 25 2 35 4 23 2 -13 2 -33 0 -45z m1797 30 c19 -18 65 -60 102 -93
319 -281 314 -276 314 -316 0 -27 -59 -109 -60 -83 0 6 11 21 25 34 35 33 33
73 -6 107 -18 16 -39 35 -48 43 -9 9 -54 49 -101 90 -185 162 -279 250 -269
250 5 0 25 -15 43 -32z m551 -17 c-10 -9 -24 21 -17 37 4 12 7 10 14 -8 5 -13
6 -25 3 -29z m-1492 12 c-3 -10 -30 -69 -60 -132 -29 -62 -53 -123 -53 -136 0
-14 11 -32 28 -44 l27 -21 -28 12 c-30 12 -43 44 -33 81 6 26 116 257 122 257
2 0 1 -8 -3 -17z m437 -9 c0 -2 -9 0 -20 6 -11 6 -20 13 -20 16 0 2 9 0 20 -6
11 -6 20 -13 20 -16z m-3480 6 c0 -5 -4 -10 -10 -10 -5 0 -10 5 -10 10 0 6 5
10 10 10 6 0 10 -4 10 -10z m4115 -165 c238 -210 245 -217 245 -232 0 -20 -82
-113 -99 -113 -7 0 -45 28 -83 62 l-70 62 -52 -55 c-136 -144 -272 -292 -279
-305 -4 -8 -16 -14 -26 -14 -19 0 -125 85 -135 108 -3 8 60 87 157 194 89 99
167 186 172 194 8 12 -7 30 -65 83 -84 77 -84 66 -6 148 33 35 42 40 55 30 9
-6 93 -79 186 -162z m-4033 113 c-7 -7 -12 -8 -12 -2 0 14 12 26 19 19 2 -3
-1 -11 -7 -17z m4457 -9 c-8 -5 -30 -8 -49 -8 l-35 1 40 8 c21 4 41 14 44 21
4 12 5 12 9 0 2 -7 -2 -17 -9 -22z m-3969 -9 c0 -10 45 -85 185 -310 150 -241
177 -287 154 -260 -23 29 -109 161 -153 237 -17 29 -67 113 -112 185 -81 133
-103 174 -84 163 6 -3 10 -10 10 -15z m2044 -90 c26 -41 36 -63 24 -48 -29 34
-106 159 -85 138 8 -8 35 -49 61 -90z m1006 56 c0 -22 -64 -145 -78 -151 -14
-5 -14 -4 0 12 16 19 58 107 63 133 1 8 -2 24 -7 35 -9 20 -9 20 6 1 9 -11 16
-24 16 -30z m1002 28 c-12 -8 -27 -12 -34 -8 -8 5 -6 10 8 15 35 14 50 10 26
-7z m-2408 -113 c12 -4 0 -7 -32 -7 -28 0 -49 3 -46 8 6 10 52 9 78 -1z m1250
-100 c97 -49 103 -67 53 -166 -20 -41 -41 -75 -45 -75 -5 0 9 35 32 79 55 108
54 109 -123 191 -78 35 -141 67 -141 72 0 7 83 -30 224 -101z m1319 102 c-7
-2 -19 -2 -25 0 -7 3 -2 5 12 5 14 0 19 -2 13 -5z m-5005 -43 c-14 -22 -24
-19 -15 5 4 8 11 15 17 15 6 0 6 -7 -2 -20z m1871 -22 c-4 -24 -8 -46 -9 -50
0 -4 -10 -13 -22 -19 l-21 -12 21 28 c12 15 22 40 22 55 0 22 7 40 15 40 1 0
-1 -19 -6 -42z m3121 32 c0 -5 -2 -10 -4 -10 -3 0 -8 5 -11 10 -3 6 -1 10 4
10 6 0 11 -4 11 -10z m-4896 -25 c-4 -8 -8 -15 -10 -15 -2 0 -4 7 -4 15 0 8 4
15 10 15 5 0 7 -7 4 -15z m535 -72 c385 -286 453 -337 466 -355 12 -18 12 -25
-1 -56 -16 -40 -34 -65 -42 -58 -2 3 5 17 17 32 42 53 31 74 -79 155 -55 41
-144 107 -198 147 -53 40 -133 100 -176 133 -77 57 -100 67 -121 51 -18 -13
-91 -107 -98 -126 -7 -18 18 -88 103 -285 22 -52 40 -96 40 -98 0 -2 -21 -2
-47 -1 -44 1 -45 2 -10 5 20 2 37 6 37 9 0 3 -16 44 -36 92 -83 198 -104 257
-98 277 9 25 90 132 106 138 30 12 50 3 137 -60z m3445 -6 c-81 -87 -202 -223
-239 -267 -19 -23 -35 -37 -35 -32 0 6 33 46 73 90 39 43 110 122 157 174 47
53 87 94 89 92 2 -2 -18 -28 -45 -57z m926 53 c0 -5 -5 -10 -11 -10 -5 0 -7 5
-4 10 3 6 8 10 11 10 2 0 4 -4 4 -10z m-66 -9 c4 -5 -3 -7 -14 -4 -23 6 -26
13 -6 13 8 0 17 -4 20 -9z m36 -1 c0 -5 -4 -10 -10 -10 -5 0 -10 5 -10 10 0 6
5 10 10 10 6 0 10 -4 10 -10z m-4378 -57 c35 -26 65 -50 68 -53 5 -6 146 -112
187 -140 35 -25 176 -128 202 -148 l24 -19 -48 -68 c-26 -37 -54 -69 -62 -72
-8 -3 -24 4 -36 15 -33 31 -211 162 -220 162 -4 0 0 -17 9 -37 8 -21 33 -83
55 -137 l39 -99 -26 -39 c-31 -44 -4 -41 -224 -18 -76 7 -102 7 -89 -3 2 -2
57 -43 122 -91 64 -49 117 -91 117 -95 -1 -12 -100 -141 -109 -141 -8 0 -83
54 -196 143 -33 26 -112 85 -175 131 -63 47 -130 98 -149 114 l-34 28 43 62
44 62 50 0 c28 -1 101 -7 161 -16 196 -26 235 -28 235 -13 0 13 -47 129 -124
307 -23 53 -33 89 -28 101 12 30 76 110 89 111 7 0 41 -21 75 -47z m4473 33
c-11 -8 -24 -12 -28 -9 -11 7 12 23 32 23 11 0 9 -4 -4 -14z m-65 0 c0 -3 -4
-8 -10 -11 -5 -3 -10 -1 -10 4 0 6 5 11 10 11 6 0 10 -2 10 -4z m150 -116 c0
-5 -2 -10 -4 -10 -3 0 -8 5 -11 10 -3 6 -1 10 4 10 6 0 11 -4 11 -10z m-3806
-54 c14 -25 26 -52 26 -61 0 -18 -43 -65 -61 -65 -6 0 0 9 14 20 40 31 41 52
7 110 -17 28 -26 49 -21 46 5 -3 21 -26 35 -50z m-1504 34 c12 -8 11 -10 -7
-10 -13 0 -23 -5 -23 -12 0 -6 -2 -9 -5 -6 -7 6 5 38 14 38 3 0 13 -5 21 -10z
m117 4 c-3 -3 -12 -4 -19 -1 -8 3 -5 6 6 6 11 1 17 -2 13 -5z m-37 -30 c0 -21
-17 -17 -23 5 -3 14 -1 18 9 14 8 -3 14 -11 14 -19z m2557 16 c52 -6 104 -19
146 -38 35 -16 75 -30 88 -30 13 0 79 -30 146 -65 82 -43 131 -63 146 -60 31
6 125 -79 152 -136 11 -23 28 -44 38 -47 27 -9 77 -123 77 -175 0 -93 -51
-190 -128 -242 l-41 -28 50 -81 c28 -45 79 -110 115 -146 35 -35 71 -80 79
-99 18 -42 20 -142 4 -177 -11 -23 -8 -30 32 -74 46 -51 123 -152 162 -212 17
-25 30 -35 49 -35 41 0 78 -41 78 -87 0 -22 -5 -48 -10 -59 -8 -15 -7 -19 4
-19 39 0 63 -22 77 -73 7 -29 12 -63 11 -76 -4 -33 -56 -122 -91 -155 -26 -25
-28 -31 -18 -54 7 -14 40 -55 74 -91 35 -36 63 -71 63 -77 0 -7 15 -35 34 -62
41 -62 49 -111 40 -247 -5 -76 -4 -105 5 -105 6 0 11 18 11 43 0 115 54 222
161 321 157 145 410 180 557 76 23 -16 46 -30 51 -30 5 0 45 20 90 45 45 25
94 45 110 45 39 0 81 -43 81 -84 0 -52 -21 -75 -110 -125 l-85 -47 -6 -76 c-5
-64 -13 -89 -48 -155 -58 -108 -115 -163 -229 -220 -93 -48 -95 -48 -207 -52
-106 -3 -118 -1 -172 24 -32 14 -68 36 -81 48 l-22 21 -138 -71 c-202 -104
-261 -125 -346 -124 -39 1 -93 8 -120 16 -70 21 -76 20 -76 -17 -1 -105 -40
-158 -164 -223 l-88 -47 31 -19 c17 -10 33 -19 36 -19 2 0 37 -20 77 -44 40
-23 152 -89 248 -146 96 -57 202 -120 235 -140 33 -20 85 -51 115 -67 72 -39
144 -83 260 -159 52 -34 176 -112 275 -174 265 -166 375 -240 375 -251 0 -6
-9 -13 -20 -16 -12 -3 -27 -18 -35 -32 -7 -15 -25 -33 -40 -41 -33 -18 -62 -8
-285 92 -199 90 -210 95 -370 166 -205 91 -442 202 -466 217 -11 7 -92 47
-180 88 -87 41 -240 114 -339 162 -99 48 -217 105 -261 125 -45 21 -85 43 -89
49 -10 17 -22 13 -28 -9 -5 -19 -67 -51 -557 -286 -107 -52 -206 -101 -220
-109 -27 -16 -156 -80 -255 -125 -95 -44 -336 -156 -431 -200 -47 -22 -88 -40
-89 -40 -2 0 -57 -25 -121 -56 -157 -74 -310 -135 -354 -141 -26 -4 -40 0 -50
12 -13 16 -12 20 8 34 36 24 113 69 149 85 18 8 33 20 33 25 0 6 6 11 14 11
16 0 83 37 104 57 7 7 18 13 23 13 5 0 9 9 9 21 0 11 4 17 10 14 5 -3 10 1 10
9 0 9 7 16 15 16 21 0 19 -9 -7 -31 -35 -31 -12 -22 108 43 81 43 111 64 102
71 -9 6 -7 7 5 3 25 -8 85 21 104 51 10 14 23 23 32 20 20 -5 46 19 31 28 -10
6 -7 46 5 65 11 18 -29 10 -53 -10 -17 -14 -22 -26 -17 -42 6 -22 5 -22 -9 -4
-14 18 -17 18 -41 2 -14 -9 -23 -22 -19 -28 4 -7 3 -8 -4 -4 -20 12 -132 -58
-132 -82 0 -5 -9 -12 -20 -15 -11 -3 -20 -13 -20 -22 0 -14 -3 -15 -15 -5 -13
11 -15 9 -13 -10 2 -13 -3 -25 -11 -28 -8 -2 -11 -1 -8 4 3 5 -6 10 -19 10
-15 1 -21 -2 -17 -9 4 -6 0 -8 -8 -5 -9 3 -26 -3 -40 -13 -13 -10 -28 -19 -33
-19 -5 0 -18 -10 -30 -23 -12 -12 -37 -30 -56 -39 -42 -21 -73 -41 -80 -50
-14 -18 -144 -98 -158 -98 -27 1 81 94 193 168 178 116 319 207 368 237 27 17
83 53 125 81 89 59 125 81 482 297 146 88 332 198 413 245 l148 86 -82 42
c-44 23 -92 53 -106 66 -37 33 -63 96 -63 151 0 26 -1 47 -3 47 -1 0 -34 -9
-72 -20 -84 -24 -167 -26 -232 -4 -26 9 -121 51 -211 94 l-163 79 -40 -29
c-60 -43 -132 -64 -224 -64 -253 -1 -469 182 -500 422 l-10 83 -88 48 c-49 26
-93 54 -98 62 -18 29 -10 89 16 114 35 36 76 32 174 -20 l83 -43 40 28 c73 54
203 78 312 60 78 -13 210 -79 267 -133 94 -90 149 -201 149 -301 0 -59 -7 -54
191 -154 186 -94 260 -104 275 -39 20 93 -1 252 -46 335 -35 67 -188 239 -364
412 -134 131 -202 226 -247 347 -18 46 -35 83 -40 83 -4 0 -22 29 -39 64 -37
75 -51 176 -30 225 10 26 9 36 -8 73 -39 81 -40 190 -3 227 18 18 54 112 66
171 4 19 13 46 20 60 7 14 23 50 35 80 12 30 28 70 36 88 8 18 14 44 14 58 0
35 91 124 127 124 18 0 46 20 94 64 68 65 180 129 247 142 18 4 32 10 32 14 0
13 51 30 90 30 21 0 42 5 46 11 3 6 30 22 59 34 29 13 82 42 119 64 36 23 70
41 75 41 5 0 39 25 76 55 79 65 95 74 155 91 57 15 76 16 177 4z m2235 -22
c28 -23 108 -157 108 -183 0 -20 -47 -128 -91 -207 -5 -10 -9 -25 -9 -33 0 -8
-4 -15 -10 -15 -17 0 -12 15 45 129 30 61 55 119 55 128 0 26 -98 171 -120
178 -37 12 -60 -16 -131 -156 -38 -78 -72 -139 -74 -137 -6 6 126 261 148 286
23 24 55 29 79 10z m441 -9 c-6 -6 -19 -9 -29 -6 -16 4 -15 5 4 6 12 0 22 6
22 13 0 6 3 8 7 5 4 -4 2 -12 -4 -18z m75 -25 c-10 -10 -21 -13 -29 -8 -12 7
0 14 41 23 2 1 -3 -6 -12 -15z m-494 -66 c25 -40 46 -78 46 -85 0 -7 -29 -70
-65 -141 -36 -71 -65 -132 -65 -137 0 -4 67 -6 149 -3 83 3 154 2 159 -1 22
-14 94 -143 85 -152 -5 -5 -121 -12 -259 -16 l-249 -6 -100 -62 c-54 -35 -104
-61 -110 -58 -15 6 -98 153 -91 160 4 4 50 34 104 67 l97 61 81 160 c120 239
146 285 159 285 7 0 33 -33 59 -72z m418 50 c-7 -7 -12 -8 -12 -2 0 14 12 26
19 19 2 -3 -1 -11 -7 -17z m158 -78 c0 -5 -5 -10 -11 -10 -5 0 -7 5 -4 10 3 6
8 10 11 10 2 0 4 -4 4 -10z m-5635 -30 c3 -5 -1 -10 -10 -10 -9 0 -13 5 -10
10 3 6 8 10 10 10 2 0 7 -4 10 -10z m5635 0 c0 -5 -2 -10 -4 -10 -3 0 -8 5
-11 10 -3 6 -1 10 4 10 6 0 11 -4 11 -10z m-5553 -22 c-3 -8 -6 -5 -6 6 -1 11
2 17 5 13 3 -3 4 -12 1 -19z m4081 -40 c30 -33 19 -38 -15 -6 -13 12 -23 31
-22 42 0 15 2 16 6 6 3 -8 17 -27 31 -42z m1482 18 c0 -20 -29 -27 -65 -16
-29 9 -29 9 9 7 24 -1 41 3 44 11 5 16 12 15 12 -2z m68 -37 c-18 -7 -33 -7
-45 0 -14 8 -9 10 27 10 42 -1 43 -1 18 -10z m-68 -9 c0 -5 -4 -10 -10 -10 -5
0 -10 5 -10 10 0 6 5 10 10 10 6 0 10 -4 10 -10z m-5135 -27 c-67 -5 -74 -9
-116 -71 -52 -77 -54 -89 -19 -124 37 -37 33 -48 -5 -15 -36 30 -35 65 1 120
59 89 71 97 138 95 l61 -2 -60 -3z m133 -10 c-10 -2 -28 -2 -40 0 -13 2 -5 4
17 4 22 1 32 -1 23 -4z m105 -10 c-13 -2 -35 -2 -50 0 -16 2 -5 4 22 4 28 0
40 -2 28 -4z m402 -98 l27 -76 -26 -39 c-35 -54 -41 -51 -10 5 14 24 23 49 20
54 -15 23 -56 142 -48 137 5 -3 22 -39 37 -81z m3617 -1 c-27 -54 -38 -64
-127 -119 -55 -34 -101 -70 -106 -82 -8 -22 2 -45 50 -125 13 -21 19 -38 14
-38 -4 0 -26 33 -48 74 -38 71 -38 74 -23 98 10 14 59 52 111 83 88 54 97 62
123 116 15 32 29 57 31 55 3 -2 -9 -30 -25 -62z m-4755 30 c-3 -3 -12 -4 -19
-1 -8 3 -5 6 6 6 11 1 17 -2 13 -5z m1343 2 c0 -2 -8 -10 -17 -17 -16 -13 -17
-12 -4 4 13 16 21 21 21 13z m-1467 -34 c-13 -2 -23 -8 -23 -14 0 -6 -3 -8 -6
-5 -12 12 17 36 34 29 14 -6 13 -7 -5 -10z m87 -2 c0 -5 -4 -10 -10 -10 -5 0
-10 5 -10 10 0 6 5 10 10 10 6 0 10 -4 10 -10z m5790 0 c0 -5 -2 -10 -4 -10
-3 0 -8 5 -11 10 -3 6 -1 10 4 10 6 0 11 -4 11 -10z m-562 -37 c-26 -2 -71 -2
-100 0 -29 2 -8 3 47 3 55 0 79 -1 53 -3z m160 -78 c40 -61 51 -86 47 -105 -7
-30 -32 -50 -59 -49 -19 2 -19 2 2 6 12 2 29 15 38 28 14 21 14 27 -2 57 -36
70 -87 137 -108 142 -17 3 -16 4 4 3 19 -2 37 -20 78 -82z m362 65 c0 -13 -11
-13 -30 0 -12 8 -11 10 8 10 12 0 22 -4 22 -10z m24 -45 c-4 -8 -8 -15 -10
-15 -2 0 -4 7 -4 15 0 8 4 15 10 15 5 0 7 -7 4 -15z m76 5 c-19 -13 -30 -13
-30 0 0 6 10 10 23 10 18 0 19 -2 7 -10z m-6005 -50 c3 -5 2 -10 -4 -10 -5 0
-13 5 -16 10 -3 6 -2 10 4 10 5 0 13 -4 16 -10z m65 -50 c-19 -13 -30 -13 -30
0 0 6 10 10 23 10 18 0 19 -2 7 -10z m1149 -64 c46 -42 44 -91 -6 -137 l-26
-24 26 40 c41 60 36 86 -23 131 -27 21 -50 40 -50 42 0 6 52 -28 79 -52z
m-1253 22 c5 -8 2 -9 -9 -5 -10 4 -20 0 -26 -11 -12 -19 -14 -12 -5 12 7 19
30 21 40 4z m74 2 c0 -5 -2 -10 -4 -10 -3 0 -8 5 -11 10 -3 6 -1 10 4 10 6 0
11 -4 11 -10z m5975 -20 l20 -9 -20 0 c-11 0 -27 4 -35 9 -13 9 -13 10 0 9 8
0 24 -4 35 -9z m115 -39 c0 -11 -31 -24 -39 -16 -3 3 1 10 9 15 19 12 30 12
30 1z m-5381 -79 c37 -19 71 -72 71 -112 -1 -62 -61 -111 -135 -109 l-40 1 42
8 c57 12 80 26 97 58 14 27 11 78 -5 87 -7 5 -46 -11 -59 -25 -3 -3 -23 -18
-45 -35 -67 -49 -70 -54 -49 -71 17 -13 15 -13 -12 0 -30 15 -54 56 -54 95 0
31 37 85 71 103 42 23 75 23 118 0z m4591 5 c37 -19 70 -74 70 -118 0 -48 -35
-91 -89 -109 -36 -12 -45 -11 -82 5 -55 25 -79 58 -79 110 0 89 101 152 180
112z m820 -61 c0 -3 -4 -8 -10 -11 -5 -3 -10 -1 -10 4 0 6 5 11 10 11 6 0 10
-2 10 -4z m30 -6 c0 -5 -2 -10 -4 -10 -3 0 -8 5 -11 10 -3 6 -1 10 4 10 6 0
11 -4 11 -10z m-30 -30 c0 -5 -2 -10 -4 -10 -3 0 -8 5 -11 10 -3 6 -1 10 4 10
6 0 11 -4 11 -10z m-35 -51 c16 -16 -29 -9 -50 7 -19 15 -19 15 10 8 17 -3 34
-11 40 -15z m-6300 4 c-11 -3 -23 -10 -27 -17 -5 -7 -8 -7 -8 0 0 16 11 24 34
23 20 -1 20 -1 1 -6z m85 -3 c0 -5 -4 -10 -10 -10 -5 0 -10 5 -10 10 0 6 5 10
10 10 6 0 10 -4 10 -10z m6234 -45 c-4 -8 -8 -15 -10 -15 -2 0 -4 7 -4 15 0 8
4 15 10 15 5 0 7 -7 4 -15z m73 4 c-14 -8 -22 -8 -30 0 -8 8 -3 11 19 11 25
-1 27 -2 11 -11z m-6407 -125 c0 -2 -7 -4 -15 -4 -8 0 -15 4 -15 10 0 5 7 7
15 4 8 -4 15 -8 15 -10z m50 -38 c0 -3 -4 -8 -10 -11 -5 -3 -10 -1 -10 4 0 6
5 11 10 11 6 0 10 -2 10 -4z m6397 -43 c-3 -10 -5 -2 -5 17 0 19 2 27 5 18 2
-10 2 -26 0 -35z m-6437 13 c0 -2 -7 -9 -15 -16 -13 -11 -14 -10 -9 4 5 14 24
23 24 12z m30 -16 c0 -5 -4 -10 -10 -10 -5 0 -10 5 -10 10 0 6 5 10 10 10 6 0
10 -4 10 -10z m-70 -10 c0 -5 -9 -10 -20 -10 -11 0 -20 -5 -20 -12 0 -6 -3 -8
-6 -5 -9 9 15 37 32 37 8 0 14 -4 14 -10z m6435 -30 c8 -13 -5 -13 -25 0 -13
8 -13 10 2 10 9 0 20 -4 23 -10z m14 -46 c-15 -18 -22 -13 -13 10 3 9 10 13
16 10 5 -3 4 -12 -3 -20z m69 -8 c-13 -14 -28 -12 -28 5 0 5 9 9 20 9 17 0 19
-2 8 -14z m-6601 -98 c-3 -8 -6 -5 -6 6 -1 11 2 17 5 13 3 -3 4 -12 1 -19z
m6643 -22 c0 -2 -7 -6 -15 -10 -8 -3 -15 -1 -15 4 0 6 7 10 15 10 8 0 15 -2
15 -4z m-6540 -11 c0 -2 -10 -10 -22 -16 -21 -11 -22 -11 -9 4 13 16 31 23 31
12z m-60 -45 c0 -5 -5 -10 -11 -10 -5 0 -7 5 -4 10 3 6 8 10 11 10 2 0 4 -4 4
-10z m30 -10 c0 -5 -2 -10 -4 -10 -3 0 -8 5 -11 10 -3 6 -1 10 4 10 6 0 11 -4
11 -10z m6490 0 c8 -5 11 -12 7 -16 -4 -4 -15 0 -24 9 -18 18 -8 23 17 7z m50
-4 c0 -3 -4 -8 -10 -11 -5 -3 -10 -1 -10 4 0 6 5 11 10 11 6 0 10 -2 10 -4z
m-6594 -15 c-3 -5 -15 -7 -26 -4 -28 7 -25 13 6 13 14 0 23 -4 20 -9z m6569
-31 c-3 -5 -11 -10 -16 -10 -6 0 -7 5 -4 10 3 6 11 10 16 10 6 0 7 -4 4 -10z
m65 -20 c-19 -13 -30 -13 -30 0 0 6 10 10 23 10 18 0 19 -2 7 -10z m-6610
-145 c-7 -8 -17 -15 -22 -15 -6 0 -5 7 2 15 7 8 17 15 22 15 6 0 5 -7 -2 -15z
m-50 -39 c0 -3 -4 -8 -10 -11 -5 -3 -10 -1 -10 4 0 6 5 11 10 11 6 0 10 -2 10
-4z m30 -17 c0 -6 -4 -7 -10 -4 -5 3 -10 11 -10 16 0 6 5 7 10 4 6 -3 10 -11
10 -16z m6590 -14 c14 -16 10 -18 -14 -9 -9 3 -16 10 -16 15 0 14 16 11 30 -6z
m-6650 -5 c0 -5 -9 -10 -20 -10 -11 0 -20 -5 -20 -12 0 -6 -3 -8 -6 -5 -9 9
15 37 32 37 8 0 14 -4 14 -10z m6655 -59 c-3 -6 -11 -11 -17 -11 -6 0 -6 6 2
15 14 17 26 13 15 -4z m70 3 c13 -5 14 -8 3 -15 -19 -13 -28 -11 -28 6 0 17 2
18 25 9z m-6660 -154 c-16 -16 -31 -28 -33 -25 -7 7 39 55 52 55 5 0 -3 -13
-19 -30z m6660 -10 c-2 -31 -15 -37 -15 -7 0 15 4 27 8 27 5 0 8 -9 7 -20z
m-65 -41 c0 -6 -4 -7 -10 -4 -5 3 -10 11 -10 16 0 6 5 7 10 4 6 -3 10 -11 10
-16z m-6600 -9 c0 -12 -8 -12 -35 0 -18 8 -17 9 8 9 15 1 27 -3 27 -9z m-60
-30 c0 -5 -9 -10 -20 -10 -11 0 -20 -5 -20 -12 0 -6 -3 -8 -7 -4 -5 4 1 14 11
22 23 16 36 18 36 4z m6670 0 c0 -5 -10 -15 -22 -21 -23 -12 -23 -12 -4 10 21
23 26 26 26 11z m50 -35 c0 -8 -4 -15 -10 -15 -5 0 -10 7 -10 15 0 8 5 15 10
15 6 0 10 -7 10 -15z m-6639 -113 c-5 -10 -18 -25 -27 -33 -16 -12 -17 -12 -9
1 10 18 37 50 42 50 2 0 -1 -8 -6 -18z m6635 -60 c-11 -10 -15 4 -8 28 l7 25
3 -23 c2 -13 1 -26 -2 -30z m-61 -3 c11 -17 -1 -21 -15 -4 -8 9 -8 15 -2 15 6
0 14 -5 17 -11z m-6600 -9 c3 -5 1 -10 -4 -10 -6 0 -11 5 -11 10 0 6 2 10 4
10 3 0 8 -4 11 -10z m-42 -28 c-3 -12 -12 -22 -20 -22 -11 0 -10 5 4 24 21 28
24 28 16 -2z m6657 -9 c0 -5 -13 -17 -27 -27 l-27 -20 20 27 c18 26 34 35 34
20z m50 -32 c0 -6 -4 -13 -10 -16 -5 -3 -10 1 -10 9 0 9 5 16 10 16 6 0 10 -4
10 -9z m-6609 -118 c-17 -32 -40 -58 -41 -47 0 11 38 64 46 64 3 0 0 -8 -5
-17z m-93 -24 c-3 -8 -7 -3 -11 10 -4 17 -3 21 5 13 5 -5 8 -16 6 -23z m6675
-46 c-7 -2 -13 -11 -13 -18 0 -8 -5 -17 -11 -20 -6 -4 -9 0 -7 11 3 21 17 34
33 33 6 0 4 -3 -2 -6z m-6593 -13 c0 -13 -11 -13 -30 0 -12 8 -11 10 8 10 12
0 22 -4 22 -10z m-50 -25 c0 -15 -6 -25 -14 -25 -8 0 -16 -6 -19 -12 -2 -7 -8
-10 -13 -5 -4 4 2 14 14 23 12 8 22 22 22 30 0 8 2 14 5 14 3 0 5 -11 5 -25z
m6564 -1 c4 -10 1 -14 -6 -12 -15 5 -23 28 -10 28 5 0 13 -7 16 -16z m5 -47
c-2 -1 -13 -9 -24 -17 -19 -14 -19 -14 -6 3 7 9 18 17 24 17 6 0 8 -1 6 -3z
m51 -36 c0 -6 -4 -13 -10 -16 -5 -3 -10 1 -10 9 0 9 5 16 10 16 6 0 10 -4 10
-9z m-6550 -62 c-12 -23 -24 -39 -26 -36 -7 7 28 77 38 77 5 0 -1 -18 -12 -41z
m5 -59 c4 -6 -5 -10 -19 -10 -14 0 -26 -5 -26 -12 0 -6 -3 -8 -7 -4 -5 4 1 14
11 22 23 17 33 18 41 4z m-45 -55 c0 -8 -7 -15 -15 -15 -8 0 -15 -5 -15 -12 0
-6 -3 -8 -7 -5 -3 4 2 16 12 27 22 24 25 25 25 5z m6480 -25 c0 -5 -2 -10 -4
-10 -3 0 -8 5 -11 10 -3 6 -1 10 4 10 6 0 11 -4 11 -10z m61 -13 c-10 -9 -11
-8 -5 6 3 10 9 15 12 12 3 -3 0 -11 -7 -18z m-116 -47 c-3 -5 -14 -10 -23 -9
-14 0 -13 2 3 9 27 11 27 11 20 0z m74 -46 c-15 -18 -22 -13 -13 10 3 9 10 13
16 10 5 -3 4 -12 -3 -20z m-6369 -69 c-16 -41 -21 -25 -7 20 6 22 13 33 15 24
1 -9 -2 -28 -8 -44z m-103 0 c0 -8 -4 -15 -9 -15 -10 0 -11 14 -1 23 9 10 10
9 10 -8z m30 -7 c-3 -8 -6 -5 -6 6 -1 11 2 17 5 13 3 -3 4 -12 1 -19z m98 -38
c4 -6 -4 -9 -17 -7 -17 1 -23 -3 -23 -19 -1 -12 -8 -29 -18 -38 -9 -10 -17
-13 -17 -7 0 5 5 13 10 16 6 3 10 17 10 30 0 30 41 48 55 25z m6275 -25 c0 -8
-4 -15 -10 -15 -5 0 -10 7 -10 15 0 8 5 15 10 15 6 0 10 -7 10 -15z m17 -113
c-14 -17 -22 0 -12 26 5 14 7 14 15 2 5 -9 4 -20 -3 -28z m-6247 -42 c-7 -17
-15 -28 -18 -26 -2 3 1 19 8 36 7 17 15 28 18 26 2 -3 -1 -19 -8 -36z m-104
-10 c0 -12 -4 -16 -9 -11 -5 5 -6 14 -3 20 10 15 12 14 12 -9z m34 5 c0 -8 -2
-15 -4 -15 -2 0 -6 7 -10 15 -3 8 -1 15 4 15 6 0 10 -7 10 -15z m90 -45 c12
-8 11 -10 -7 -10 -13 0 -23 5 -23 10 0 13 11 13 30 0z m-49 -58 c-6 -2 -11
-10 -11 -18 0 -9 -5 -12 -11 -9 -7 5 -5 13 5 24 9 10 17 26 17 37 1 13 3 12 6
-6 3 -13 0 -26 -6 -28z m6136 -24 c-3 -7 -5 -2 -5 12 0 14 2 19 5 13 2 -7 2
-19 0 -25z m64 -1 c-10 -9 -11 -8 -5 6 3 10 9 15 12 12 3 -3 0 -11 -7 -18z
m-6091 -52 c-15 -39 -23 -25 -8 16 6 18 13 29 15 23 2 -6 -1 -24 -7 -39z
m6015 15 c-3 -5 -12 -10 -18 -10 -7 0 -6 4 3 10 19 12 23 12 15 0z m-6118 -25
c0 -8 -4 -15 -9 -15 -10 0 -11 14 -1 23 9 10 10 9 10 -8z m30 -7 c-3 -8 -6 -5
-6 6 -1 11 2 17 5 13 3 -3 4 -12 1 -19z m6050 16 c-3 -3 -12 -4 -19 -1 -8 3
-5 6 6 6 11 1 17 -2 13 -5z m66 -52 c-16 -16 -16 -15 -10 8 4 14 7 32 7 40 1
8 5 5 11 -8 7 -18 5 -28 -8 -40z m-6026 2 c-3 -3 -12 -4 -19 -1 -8 3 -5 6 6 6
11 1 17 -2 13 -5z m-50 -69 c-24 -24 -29 -18 -10 11 9 15 19 22 21 15 2 -6 -3
-18 -11 -26z m5950 -47 c-3 -8 -6 -5 -6 6 -1 11 2 17 5 13 3 -3 4 -12 1 -19z
m-5784 -61 c-3 -20 -10 -37 -15 -37 -5 0 -6 10 -3 23 4 12 9 30 12 40 8 31 13
13 6 -26z m-102 -10 c-6 -8 -8 -17 -4 -20 3 -4 1 -7 -5 -7 -15 0 -15 13 0 28
16 16 23 15 9 -1z m5902 -45 c-16 -16 -16 -15 -10 8 4 14 7 32 7 40 1 8 5 5
11 -8 7 -18 5 -28 -8 -40z m-5863 27 c0 -6 -4 -7 -10 -4 -5 3 -10 11 -10 16 0
6 5 7 10 4 6 -3 10 -11 10 -16z m93 -26 c-7 -2 -19 -2 -25 0 -7 3 -2 5 12 5
14 0 19 -2 13 -5z m-53 -73 c-8 -9 -17 -11 -19 -6 -2 6 1 12 8 14 6 2 12 18
12 35 l1 32 7 -30 c4 -20 1 -35 -9 -45z m3108 -48 c2 -8 25 -12 62 -12 32 0
71 -7 86 -15 16 -8 22 -15 14 -16 -10 0 -11 -2 -2 -6 6 -2 12 -9 12 -14 0 -6
-4 -8 -9 -4 -5 3 -12 1 -16 -5 -3 -5 3 -10 13 -10 35 0 47 -28 47 -109 0 -58
-5 -84 -18 -105 -10 -15 -21 -25 -25 -21 -4 3 -1 9 5 13 18 11 35 101 27 147
-8 49 -19 65 -44 60 -25 -5 -35 12 -19 31 7 9 9 18 3 24 -14 14 -115 20 -118
6 -2 -6 -11 -33 -20 -61 -9 -27 -16 -58 -16 -68 0 -26 30 -34 47 -11 13 18 15
18 24 2 12 -22 39 -24 39 -4 0 24 21 30 27 7 3 -12 12 -21 19 -21 10 0 8 -6
-7 -21 -17 -17 -23 -18 -35 -8 -13 10 -20 10 -36 0 -15 -9 -23 -10 -31 -2 -6
6 -19 11 -28 11 -14 0 -16 -8 -11 -47 6 -60 27 -103 50 -103 13 0 14 -2 3 -9
-10 -7 -11 -13 -1 -31 28 -52 -12 -5 -44 53 -25 44 -32 65 -25 74 14 16 3 33
-24 34 -15 1 -17 3 -6 6 19 5 31 37 18 50 -5 5 3 36 17 71 14 35 24 71 22 80
-6 30 -48 43 -130 39 -114 -5 -127 -24 -84 -119 22 -47 23 -59 14 -107 -5 -29
-8 -54 -6 -56 2 -2 23 0 48 5 25 5 51 5 59 1 8 -5 -6 -11 -38 -15 -41 -5 -55
-12 -75 -39 -35 -47 -96 -161 -96 -181 0 -28 32 -68 79 -98 45 -28 49 -38 8
-17 -32 17 -77 60 -93 90 -12 25 -11 32 17 88 17 33 28 65 24 71 -3 5 0 10 8
10 20 0 40 48 42 103 2 49 -11 61 -35 32 -12 -14 -15 -14 -30 0 -21 19 -36 19
-44 0 -5 -13 -9 -12 -26 5 -19 19 -19 21 -3 40 21 24 33 26 33 5 0 -21 27 -19
40 3 10 16 10 16 20 0 6 -10 20 -18 30 -18 26 0 26 29 1 100 l-19 55 -56 3
c-44 2 -58 0 -62 -13 -4 -9 -2 -21 5 -28 18 -18 13 -26 -21 -29 l-33 -3 -3
-70 c-4 -92 2 -113 30 -111 33 3 39 -3 27 -25 -8 -16 -7 -25 5 -38 14 -16 14
-20 2 -30 -11 -9 -15 -7 -20 11 -3 13 -6 34 -7 48 0 22 -1 23 -8 6 -6 -17 -11
-12 -30 28 -19 39 -23 59 -19 118 3 62 7 73 31 94 25 21 38 42 19 30 -5 -3 -9
1 -9 8 0 14 -2 14 87 21 76 6 94 11 85 25 -3 5 0 7 8 4 8 -3 17 -2 20 3 8 13
200 -1 205 -15z m2662 -6 c0 -3 -4 -8 -10 -11 -5 -3 -10 -1 -10 4 0 6 5 11 10
11 6 0 10 -2 10 -4z m-2781 -15 c9 -6 10 -10 2 -16 -7 -3 -9 -15 -6 -26 4 -10
2 -19 -4 -19 -7 0 -7 -8 -1 -26 6 -14 7 -30 4 -35 -3 -6 -1 -16 6 -24 8 -10 6
-18 -11 -34 -25 -23 -43 -18 -36 11 3 11 1 32 -5 47 -6 14 -11 29 -10 34 1 4
-3 7 -9 7 -6 0 -9 7 -5 15 3 8 2 15 -3 15 -4 0 -6 12 -3 26 3 15 8 21 12 14 5
-8 11 -6 20 5 14 17 28 19 49 6z m-2811 -48 c-2 -31 1 -48 9 -48 21 0 27 -15
5 -15 -26 0 -35 27 -26 75 9 50 16 43 12 -12z m2892 12 c10 -12 9 -23 -4 -55
-9 -22 -16 -50 -16 -61 0 -28 -23 -19 -31 12 -24 83 11 153 51 104z m-232 -25
c3 3 9 -7 13 -22 4 -15 4 -27 1 -26 -4 1 -17 -3 -29 -10 -17 -10 -28 -10 -44
-2 -16 9 -24 8 -38 -4 -10 -9 -21 -13 -24 -9 -12 12 -7 22 14 28 28 9 59 41
59 62 0 14 2 14 21 -3 12 -10 24 -17 27 -14z m353 15 c7 18 9 16 20 -12 8 -18
19 -33 25 -33 14 0 26 -27 15 -34 -4 -3 -25 3 -45 13 -20 11 -45 17 -57 14
-20 -5 -20 -5 -2 30 15 29 20 32 27 19 8 -14 10 -14 17 3z m-3118 -25 c-3 -12
-8 -19 -11 -16 -5 6 5 36 12 36 2 0 2 -9 -1 -20z m5635 6 c-2 -1 -12 -8 -22
-16 -18 -14 -19 -14 -7 8 7 12 17 20 22 16 6 -3 9 -7 7 -8z m-5598 -6 c0 -5
-4 -10 -10 -10 -5 0 -10 5 -10 10 0 6 5 10 10 10 6 0 10 -4 10 -10z m3070 -40
c0 -5 -4 -10 -10 -10 -5 0 -10 5 -10 10 0 6 5 10 10 10 6 0 10 -4 10 -10z
m-3010 -34 c0 -13 -9 -31 -20 -41 -23 -21 -26 -9 -6 18 8 10 11 27 8 39 -3 14
-1 19 6 14 7 -4 12 -17 12 -30z m5357 -48 c-3 -8 -6 -5 -6 6 -1 11 2 17 5 13
3 -3 4 -12 1 -19z m103 2 c0 -5 -4 -10 -10 -10 -5 0 -10 5 -10 10 0 6 5 10 10
10 6 0 10 -4 10 -10z m-30 -20 c0 -5 -4 -10 -10 -10 -5 0 -10 5 -10 10 0 6 5
10 10 10 6 0 10 -4 10 -10z m-3990 -10 c0 -5 -4 -10 -10 -10 -5 0 -10 5 -10
10 0 6 5 10 10 10 6 0 10 -4 10 -10z m1586 -20 c8 0 14 -10 14 -24 0 -20 -4
-23 -22 -19 -18 4 -20 2 -8 -6 8 -5 11 -13 7 -17 -3 -4 -14 -1 -23 7 -10 8
-19 13 -21 12 -12 -9 -20 0 -16 17 6 24 46 55 51 40 2 -5 10 -10 18 -10z
m2307 13 c-7 -2 -19 -2 -25 0 -7 3 -2 5 12 5 14 0 19 -2 13 -5z m-2743 -14 c0
-8 5 -8 15 1 12 10 15 9 16 -6 1 -18 1 -18 6 0 4 15 7 16 15 5 7 -11 11 -11
15 -1 8 20 20 14 18 -10 -1 -13 -3 -29 -4 -35 0 -7 -6 -13 -12 -13 -6 0 -9 7
-5 15 3 8 1 15 -4 15 -5 0 -15 -7 -24 -15 -19 -19 -26 -19 -26 2 0 9 -7 25
-17 35 -9 11 -11 18 -5 18 7 0 12 -5 12 -11z m-2537 -24 c-3 -9 -8 -14 -10
-11 -3 3 -2 9 2 15 9 16 15 13 8 -4z m101 0 c-4 -8 -10 -15 -15 -15 -4 0 -6 7
-3 15 4 8 10 15 15 15 4 0 6 -7 3 -15z m2948 -7 c-15 -15 -16 -58 -1 -58 6 0
9 -6 7 -12 -5 -14 -95 -21 -103 -8 -3 4 13 10 35 14 31 5 40 11 40 26 0 10 -5
22 -10 25 -16 10 -2 25 23 25 16 0 18 -3 9 -12z m2244 -24 c-19 -19 -21 -11
-4 16 7 11 14 16 16 10 2 -5 -4 -17 -12 -26z m-5173 -1 c-17 -3 -23 -11 -23
-32 0 -16 -7 -34 -15 -41 -9 -8 -15 -9 -15 -2 0 6 5 14 11 18 6 3 9 17 6 30
-4 25 5 33 38 32 17 -1 16 -1 -2 -5z m2683 -5 c5 -7 2 -9 -9 -5 -11 4 -14 2
-11 -7 3 -7 -2 -16 -10 -19 -17 -7 -20 1 -10 27 7 19 30 21 40 4z m69 -85 c16
-32 31 -61 33 -65 2 -5 0 -8 -5 -8 -9 0 -47 64 -64 108 -17 45 8 20 36 -35z
m-196 -17 c-29 -49 -36 -46 -8 4 12 22 24 38 26 36 2 -2 -6 -20 -18 -40z
m2468 -3 c-3 -10 -5 -4 -5 12 0 17 2 24 5 18 2 -7 2 -21 0 -30z m-2340 -40
c-3 -10 -5 -2 -5 17 0 19 2 27 5 18 2 -10 2 -26 0 -35z m2443 37 c0 -5 -2 -10
-4 -10 -3 0 -8 5 -11 10 -3 6 -1 10 4 10 6 0 11 -4 11 -10z m-30 -9 c0 -6 -4
-13 -10 -16 -5 -3 -10 1 -10 9 0 9 5 16 10 16 6 0 10 -4 10 -9z m-4246 -22
c-3 -5 -10 -7 -15 -3 -5 3 -7 10 -3 15 3 5 10 7 15 3 5 -3 7 -10 3 -15z m1743
-11 c-3 -8 -6 -5 -6 6 -1 11 2 17 5 13 3 -3 4 -12 1 -19z m57 -26 c-20 -5 -7
-22 17 -22 10 0 24 9 31 20 13 21 48 28 48 10 0 -6 11 -15 25 -20 17 -6 23
-14 19 -25 -6 -14 -8 -14 -24 0 -15 14 -18 14 -30 0 -16 -19 -30 -19 -30 1 0
8 -4 13 -9 10 -9 -6 -2 -56 8 -56 4 0 12 5 18 11 6 6 17 9 25 6 8 -3 0 -10
-19 -18 -18 -8 -33 -17 -33 -22 0 -4 -5 -5 -11 -1 -8 4 -7 9 2 15 10 6 8 9 -9
9 -19 0 -22 -4 -17 -20 8 -25 -3 -26 -21 -2 -11 14 -15 15 -23 3 -10 -15 -35
-6 -26 10 4 5 1 9 -4 9 -6 0 -11 4 -11 10 0 5 7 7 15 4 20 -8 45 13 38 32 -3
8 -2 31 2 51 l7 38 13 -25 c12 -21 11 -25 -1 -28z m-2513 -9 c-9 -16 -10 -16
-11 -1 0 9 3 25 7 35 7 16 8 17 11 1 2 -10 -1 -25 -7 -35z m2713 31 c3 -8 2
-12 -4 -9 -6 3 -10 10 -10 16 0 14 7 11 14 -7z m2155 -57 c-23 -21 -23 -17 3
35 12 25 13 26 16 7 2 -12 -6 -30 -19 -42z m-4924 33 c3 -5 1 -10 -4 -10 -6 0
-11 5 -11 10 0 6 2 10 4 10 3 0 8 -4 11 -10z m2457 -15 c-5 -27 -21 -32 -40
-13 -18 18 -14 31 8 25 11 -3 18 -1 14 4 -3 5 1 9 9 9 10 0 13 -8 9 -25z m48
17 c0 -5 -7 -17 -15 -28 -14 -18 -14 -17 -4 9 12 27 19 34 19 19z m270 -10 c0
-5 -7 -17 -15 -28 -14 -18 -14 -17 -4 9 12 27 19 34 19 19z m-2675 -22 c-3 -5
-13 -10 -21 -10 -8 0 -14 5 -14 10 0 6 9 10 21 10 11 0 17 -4 14 -10z m2430 0
c3 -5 1 -10 -4 -10 -6 0 -11 5 -11 10 0 6 2 10 4 10 3 0 8 -4 11 -10z m-2475
-76 c-18 -21 -24 -10 -9 18 8 14 14 18 17 10 2 -7 -2 -19 -8 -28z m2654 11
c-16 -14 -33 -25 -37 -25 -11 0 46 49 57 50 5 0 -4 -11 -20 -25z m-64 -35 c-8
-5 -22 -9 -30 -9 -10 0 -8 3 5 9 27 12 43 12 25 0z m-107 -7 c-7 -2 -19 -2
-25 0 -7 3 -2 5 12 5 14 0 19 -2 13 -5z m-2286 -55 c-2 -13 -4 -5 -4 17 -1 22
1 32 4 23 2 -10 2 -28 0 -40z m4575 36 c-13 -9 -26 -13 -30 -9 -8 8 17 25 38
25 9 0 6 -6 -8 -16z m-114 -11 c-10 -2 -26 -2 -35 0 -10 3 -2 5 17 5 19 0 27
-2 18 -5z m-4557 -50 c-12 -20 -14 -14 -5 12 4 9 9 14 11 11 3 -2 0 -13 -6
-23z m4586 8 c-2 -10 -11 -27 -22 -37 -19 -19 -19 -17 4 29 17 32 22 34 18 8z
m-4542 0 c3 -5 1 -12 -5 -16 -5 -3 -10 1 -10 9 0 18 6 21 15 7z m68 -94 c-18
-20 -32 -15 -15 6 6 7 9 24 6 38 l-5 24 15 -25 c13 -22 13 -27 -1 -43z m1311
-36 c-9 -10 -26 18 -18 30 5 9 9 8 14 -7 4 -10 6 -21 4 -23z m69 31 c4 10 8
10 16 -2 12 -17 13 -15 -21 -24 -24 -5 -28 -3 -28 15 0 17 3 19 14 10 11 -9
15 -9 19 1z m347 -3 c0 -9 22 -10 76 -6 55 4 74 2 71 -6 -4 -13 -207 -18 -207
-5 0 9 31 27 48 28 6 0 12 -5 12 -11z m357 1 c13 0 13 -3 3 -15 -14 -17 -45
-21 -35 -5 3 6 -1 10 -10 10 -9 0 -13 -4 -10 -10 3 -5 2 -10 -3 -10 -6 0 -12
6 -15 14 -6 15 18 27 41 20 8 -2 21 -4 29 -4z m-1901 -68 c-12 -11 -16 6 -9
39 l8 34 3 -33 c2 -19 1 -36 -2 -40z m1374 55 c0 -7 -11 -14 -25 -15 -31 -2
-33 15 -2 21 12 2 23 5 25 6 1 0 2 -5 2 -12z m77 -9 c-3 -8 -6 -5 -6 6 -1 11
2 17 5 13 3 -3 4 -12 1 -19z m288 12 c4 -6 10 -8 15 -5 5 3 11 1 15 -5 3 -5
-3 -10 -14 -10 -28 0 -52 11 -45 21 7 12 21 11 29 -1z m205 -5 c0 -8 -4 -15
-10 -15 -5 0 -10 7 -10 15 0 8 5 15 10 15 6 0 10 -7 10 -15z m120 4 c0 -8 5
-7 16 2 13 10 17 10 24 0 5 -9 10 -10 14 -2 5 7 42 11 97 11 51 0 88 -4 85 -9
-3 -5 -16 -7 -28 -3 -14 3 -19 2 -14 -6 5 -8 -2 -12 -21 -12 -22 0 -25 2 -13
10 11 7 2 10 -33 10 -30 0 -46 -4 -42 -10 4 -6 -15 -10 -49 -10 -34 0 -57 5
-60 13 -5 10 -7 10 -12 0 -6 -14 -44 -18 -44 -5 0 16 13 22 47 22 18 0 33 -5
33 -11z m276 -4 c-8 -8 -20 -15 -26 -15 -16 0 12 29 28 30 10 0 10 -4 -2 -15z
m61 -2 c0 -7 -8 -13 -17 -13 -9 0 -17 6 -17 14 0 8 8 14 17 13 9 0 17 -7 17
-14z m90 2 c0 -9 -10 -15 -24 -15 -14 0 -23 6 -23 15 0 9 9 15 23 15 14 0 24
-6 24 -15z m40 9 c-3 -3 -12 -4 -19 -1 -8 3 -5 6 6 6 11 1 17 -2 13 -5z m98
-3 c-3 -5 3 -12 12 -14 12 -3 9 -5 -8 -6 -16 -1 -29 5 -33 14 -4 10 1 15 15
15 11 0 18 -4 14 -9z m108 2 c-18 -2 -48 -2 -65 0 -18 2 -4 4 32 4 36 0 50 -2
33 -4z m104 1 c-3 -3 -12 -4 -19 -1 -8 3 -5 6 6 6 11 1 17 -2 13 -5z m67 -9
c-4 -9 -17 -15 -33 -14 -17 1 -20 3 -8 6 9 2 17 9 17 14 0 5 7 9 15 9 9 0 12
-6 9 -15z m63 8 c-15 -2 -25 -9 -22 -14 4 -5 -1 -9 -11 -9 -13 0 -14 3 -4 15
7 8 24 14 39 14 l26 -2 -28 -4z m73 -2 c0 -5 -9 -7 -20 -4 -11 3 -20 7 -20 9
0 2 9 4 20 4 11 0 20 -4 20 -9z m1046 -17 c-4 -9 -9 -15 -11 -12 -3 3 -3 13 1
22 4 9 9 15 11 12 3 -3 3 -13 -1 -22z m-2790 9 c-11 -11 -46 -14 -46 -3 0 6
12 10 27 10 14 0 23 -3 19 -7z m1257 -10 c-7 -2 -19 -2 -25 0 -7 3 -2 5 12 5
14 0 19 -2 13 -5z m140 0 c-7 -2 -19 -2 -25 0 -7 3 -2 5 12 5 14 0 19 -2 13
-5z m105 0 c-10 -2 -26 -2 -35 0 -10 3 -2 5 17 5 19 0 27 -2 18 -5z m1372 -21
c-8 -3 -18 -9 -21 -15 -4 -5 -12 -6 -19 -2 -9 6 -6 11 11 21 13 7 28 10 33 6
6 -3 3 -8 -4 -10z m-4234 -17 c25 -19 14 -19 -22 0 -16 8 -22 15 -13 15 8 0
24 -7 35 -15z m1984 -5 c0 -5 -5 -10 -11 -10 -5 0 -7 5 -4 10 3 6 8 10 11 10
2 0 4 -4 4 -10z m-1877 -7 c-7 -2 -19 -2 -25 0 -7 3 -2 5 12 5 14 0 19 -2 13
-5z m1055 -18 c54 -45 49 -120 -9 -150 -43 -23 -77 -18 -110 14 -84 84 28 212
119 136z m283 -4 c32 -33 36 -58 14 -100 -17 -35 -32 -41 -96 -41 l-49 0 0 85
0 85 51 0 c43 0 55 -5 80 -29z m1113 13 c9 -8 16 -20 16 -25 0 -19 -28 -64
-55 -89 l-27 -25 44 -6 c42 -6 41 -6 -15 -7 l-59 -2 46 51 c48 54 56 78 31 99
-12 10 -21 10 -42 1 -28 -13 -46 -6 -23 9 23 15 67 12 84 -6z m152 -5 c27 -30
27 -115 0 -135 -46 -33 -98 -9 -109 50 -14 81 60 138 109 85z m130 13 c33 -22
17 -80 -37 -128 l-21 -19 43 -6 c43 -6 43 -6 -13 -7 -32 -1 -58 -1 -58 1 0 2
20 25 45 52 48 51 54 79 23 99 -13 8 -23 7 -39 -2 -11 -7 -24 -11 -27 -7 -18
17 60 34 84 17z m121 -24 c-9 -13 -26 -35 -37 -50 l-22 -28 35 0 c29 0 36 4
40 23 3 21 4 21 12 2 5 -11 16 -25 24 -32 14 -11 14 -12 -1 -13 -11 0 -18 -8
-18 -20 0 -11 -4 -20 -10 -20 -5 0 -10 9 -10 20 0 17 -7 20 -45 20 -25 0 -45
4 -45 9 0 13 83 122 88 116 3 -2 -2 -15 -11 -27z m1176 4 c-3 -12 -9 -22 -14
-22 -12 0 -11 7 2 32 13 25 20 19 12 -10z m-900 6 c33 -17 46 -39 47 -76 0
-45 -16 -71 -53 -87 -44 -18 -82 -8 -113 28 -65 77 29 183 119 135z m-3160
-29 c3 -12 0 -27 -7 -34 -10 -10 -12 -6 -12 21 1 38 11 45 19 13z m1517 -9
c35 -35 26 -50 -29 -50 -57 0 -69 -10 -41 -35 14 -13 28 -16 50 -11 19 3 29 2
25 -4 -10 -16 -67 -12 -87 7 -37 34 -8 113 42 113 11 0 29 -9 40 -20z m168 -7
c36 -48 -3 -110 -63 -100 -32 5 -35 4 -35 -19 0 -13 -4 -24 -10 -24 -6 0 -10
34 -10 81 0 64 3 80 13 76 8 -3 20 -1 28 4 19 12 61 2 77 -18z m332 17 c11 -7
5 -10 -23 -10 -30 0 -38 -3 -35 -17 2 -9 18 -21 37 -28 39 -13 49 -29 31 -50
-13 -16 -75 -21 -84 -6 -3 4 11 8 31 7 28 -1 38 3 41 17 3 12 -3 17 -22 17
-27 0 -56 23 -56 45 0 28 51 44 80 25z m-268 -46 c6 -88 70 -88 76 0 4 66 22
57 22 -12 l0 -59 -44 -1 c-57 -3 -76 16 -76 74 0 59 18 57 22 -2z m158 -14 c0
-33 -4 -60 -10 -60 -6 0 -10 27 -10 60 0 33 4 60 10 60 6 0 10 -27 10 -60z
m-1710 3 c0 -13 -4 -23 -10 -23 -5 0 -9 16 -8 35 1 39 18 27 18 -12z m3640
-19 c-7 -7 -24 -13 -39 -13 l-26 2 28 4 c22 3 29 11 35 36 6 28 7 29 10 9 2
-13 -2 -30 -8 -38z m-1604 19 c-10 -10 -46 -11 -52 -1 -3 4 9 8 27 8 18 0 29
-3 25 -7z m-2109 -19 c13 -4 20 -10 17 -16 -3 -5 -12 -4 -21 3 -12 10 -16 10
-24 -2 -7 -11 -9 -11 -9 4 0 19 4 20 37 11z m3808 -4 c3 -5 3 -10 -2 -10 -4 0
-19 -3 -33 -6 -24 -5 -24 -5 -6 10 23 19 32 20 41 6z m-3725 -50 c8 -15 7 -25
-3 -41 -13 -18 -14 -17 -13 21 0 22 2 40 3 40 1 0 7 -9 13 -20z m3623 3 c-6
-19 -32 -43 -45 -43 -6 0 42 59 49 60 1 0 0 -8 -4 -17z m-3386 -100 c-3 -10
-5 -4 -5 12 0 17 2 24 5 18 2 -7 2 -21 0 -30z m668 7 c-3 -5 -10 -10 -16 -10
-5 0 -9 5 -9 10 0 6 7 10 16 10 8 0 12 -4 9 -10z m103 3 c-15 -2 -42 -2 -60 0
-18 2 -6 4 27 4 33 0 48 -2 33 -4z m150 0 c-16 -2 -40 -2 -55 0 -16 2 -3 4 27
4 30 0 43 -2 28 -4z m90 0 c-10 -2 -26 -2 -35 0 -10 3 -2 5 17 5 19 0 27 -2
18 -5z m70 0 c-10 -2 -26 -2 -35 0 -10 3 -2 5 17 5 19 0 27 -2 18 -5z m175 0
c-24 -2 -62 -2 -85 0 -24 2 -5 4 42 4 47 0 66 -2 43 -4z m74 1 c-3 -3 -12 -4
-19 -1 -8 3 -5 6 6 6 11 1 17 -2 13 -5z m122 2 c-8 -8 -88 -10 -95 -3 -4 4 17
7 46 7 29 0 51 -2 49 -4z m129 -3 c-21 -2 -57 -2 -80 0 -24 2 -7 4 37 4 44 0
63 -2 43 -4z m179 0 c-20 -2 -52 -2 -70 0 -17 2 0 4 38 4 39 0 53 -2 32 -4z
m131 0 c-16 -2 -40 -2 -55 0 -16 2 -3 4 27 4 30 0 43 -2 28 -4z m294 0 c-51
-2 -132 -2 -180 0 -48 1 -6 3 93 3 99 0 138 -2 87 -3z m205 0 c-20 -2 -52 -2
-70 0 -17 2 0 4 38 4 39 0 53 -2 32 -4z m161 0 c-21 -2 -57 -2 -80 0 -24 2 -7
4 37 4 44 0 63 -2 43 -4z m-2638 -28 c-7 -9 -15 -13 -18 -10 -3 2 1 11 8 20 7
9 15 13 18 10 3 -2 -1 -11 -8 -20z m3229 9 c12 -12 -8 -10 -34 2 l-30 14 30
-6 c16 -3 32 -8 34 -10z m-3194 -4 c3 -5 1 -10 -4 -10 -6 0 -11 5 -11 10 0 6
2 10 4 10 3 0 8 -4 11 -10z m3300 0 c3 -5 3 -10 -2 -10 -4 0 -18 -3 -30 -6
-13 -4 -23 -2 -23 4 0 9 15 16 42 21 4 0 10 -3 13 -9z m-111 -44 c-3 -9 -12
-16 -20 -16 -8 0 -14 -5 -14 -12 0 -6 -3 -8 -7 -4 -4 3 4 17 18 30 27 26 32
27 23 2z m-3104 -21 c0 -7 -6 -15 -12 -18 -9 -3 -13 5 -13 23 0 22 3 26 13 18
6 -6 12 -16 12 -23z m2921 1 c-6 -14 -8 -34 -5 -43 5 -16 4 -16 -6 0 -9 14 -9
25 0 48 15 36 25 32 11 -5z m-2720 -59 c-8 -8 -11 2 -10 34 l1 44 10 -34 c6
-23 6 -37 -1 -44z m2686 17 c-3 -3 -12 -4 -19 -1 -8 3 -5 6 6 6 11 1 17 -2 13
-5z m109 -6 c4 -6 3 -8 -4 -4 -6 3 -13 2 -17 -4 -8 -13 -25 -13 -25 -1 0 5 8
12 18 14 9 3 18 5 19 6 1 0 5 -4 9 -11z m-2866 -2 c0 -2 -7 -9 -15 -16 -13
-11 -14 -10 -9 4 5 14 24 23 24 12z m30 -16 c0 -5 -4 -10 -10 -10 -5 0 -10 5
-10 10 0 6 5 10 10 10 6 0 10 -4 10 -10z m2536 -37 c-8 -15 -15 -22 -16 -15 0
14 22 53 28 47 2 -2 -3 -16 -12 -32z m187 17 c-5 -19 -23 -29 -23 -12 0 7 20
32 26 32 1 0 0 -9 -3 -20z m-2643 -36 c0 -27 -18 -23 -22 6 -4 24 -2 27 9 19
7 -7 13 -17 13 -25z m230 -21 c0 -7 -4 -13 -10 -13 -5 0 -10 12 -10 28 0 21 2
24 10 12 5 -8 10 -21 10 -27z m2380 27 c0 -5 -5 -10 -11 -10 -5 0 -7 5 -4 10
3 6 8 10 11 10 2 0 4 -4 4 -10z m-190 -10 c13 -9 13 -10 0 -10 -8 0 -22 5 -30
10 -13 9 -13 10 0 10 8 0 22 -5 30 -10z m90 -37 c-17 -12 -23 -13 -37 -1 -14
12 -13 14 13 19 39 7 50 0 24 -18z m-2244 2 c-11 -8 -22 -12 -25 -9 -6 6 19
24 34 24 6 -1 1 -7 -9 -15z m1933 -25 c-27 -47 -43 -55 -72 -35 -21 15 -21 15
10 9 29 -6 34 -3 54 30 29 49 36 46 8 -4z m-2022 3 c-7 -6 -46 10 -41 18 3 5
14 3 24 -3 11 -7 18 -13 17 -15z m2230 -9 c-3 -3 -12 -4 -19 -1 -8 3 -5 6 6 6
11 1 17 -2 13 -5z m-2128 -31 c2 -1 -3 -9 -12 -17 -13 -14 -15 -12 -19 14 -4
26 -2 28 11 18 9 -7 18 -13 20 -15z m201 -4 c0 -5 -4 -9 -10 -9 -5 0 -10 7
-10 16 0 8 5 12 10 9 6 -3 10 -10 10 -16z m47 1 c-27 -21 -37 -25 -37 -12 0 4
10 12 23 18 36 18 42 16 14 -6z m1398 -23 c-21 -32 -45 -41 -62 -24 -12 12
-10 13 14 10 23 -4 32 1 43 21 7 14 15 24 17 22 3 -2 -3 -16 -12 -29z m320 -7
c-27 -12 -35 -12 -35 0 0 6 12 10 28 9 24 0 25 -1 7 -9z m-1805 -10 c0 -5 -10
-9 -22 -7 -15 1 -22 -3 -20 -11 1 -8 -2 -11 -7 -7 -6 3 -8 12 -4 20 6 17 53
21 53 5z m91 -11 c11 -5 17 -14 14 -20 -9 -14 -25 -11 -25 5 0 8 -6 17 -12 19
-7 3 -9 6 -5 6 5 1 17 -4 28 -10z m197 -1 c9 -9 15 -9 24 0 7 7 17 12 23 12
17 -1 -28 -30 -46 -30 -9 0 -19 7 -23 15 -7 18 5 20 22 3z m352 -23 c-18 -19
-36 -32 -39 -29 -5 4 58 64 68 64 3 0 -10 -16 -29 -35z m549 5 c-30 -39 -49
-45 -71 -20 -10 11 -13 15 -6 10 20 -17 43 -11 68 15 32 34 35 32 9 -5z m506
20 c-3 -5 -11 -10 -16 -10 -6 0 -7 5 -4 10 3 6 11 10 16 10 6 0 7 -4 4 -10z
m-796 -46 c-19 -23 -52 -34 -66 -22 -20 16 -15 30 7 18 20 -11 60 5 60 24 0 5
3 6 6 3 4 -4 1 -14 -7 -23z m633 14 c-17 -8 -26 -8 -34 0 -9 9 -4 12 23 11 32
0 33 -1 11 -11z m-1297 -8 c18 -8 17 -9 -7 -9 -16 -1 -28 -6 -28 -13 0 -6 -2
-9 -5 -6 -7 6 5 38 14 37 3 0 15 -4 26 -9z m353 -9 c3 -8 -1 -12 -9 -9 -7 2
-15 10 -17 17 -3 8 1 12 9 9 7 -2 15 -10 17 -17z m-232 -22 c3 -5 -4 -9 -14
-9 -11 0 -22 6 -25 14 -4 10 0 12 14 9 11 -3 22 -9 25 -14z m1071 15 c-3 -3
-12 -4 -19 -1 -8 3 -5 6 6 6 11 1 17 -2 13 -5z m-203 -16 c18 5 19 3 8 -11
-13 -15 -16 -15 -38 0 -27 17 -33 29 -8 15 9 -5 26 -7 38 -4z m-658 -13 c-11
-8 -28 -15 -38 -15 -10 0 -18 -5 -18 -12 0 -6 -3 -8 -6 -5 -10 10 17 39 31 33
7 -2 18 0 26 5 22 14 26 10 5 -6z m102 -10 c1 -1 -4 -7 -11 -13 -10 -9 -17 -6
-30 9 -17 19 -16 19 10 13 16 -4 29 -8 31 -9z m272 -16 c0 -14 -36 -11 -49 4
-8 11 -5 13 19 9 17 -2 30 -8 30 -13z m185 11 c-3 -5 -13 -10 -21 -10 -8 0
-14 5 -14 10 0 6 9 10 21 10 11 0 17 -4 14 -10z m-295 -12 c0 -4 -8 -8 -18 -8
-10 0 -23 -5 -30 -12 -7 -7 -12 -8 -12 -2 0 5 4 14 10 20 12 12 50 13 50 2z"/>
<path d="M3542 6783 c-7 -42 -10 -78 -8 -80 7 -7 115 17 121 26 5 9 -83 131
-94 131 -4 0 -13 -34 -19 -77z m44 -19 c-3 -9 0 -11 11 -7 11 4 14 2 9 -5 -4
-7 -15 -12 -25 -12 -14 0 -17 6 -13 25 2 14 9 22 14 19 5 -3 7 -12 4 -20z"/>
<path d="M2815 6639 c-16 -9 -79 -49 -104 -66 -2 -2 3 -11 11 -20 8 -10 27
-40 43 -68 16 -27 33 -53 38 -56 11 -8 88 38 130 77 35 33 35 73 1 113 -20 24
-34 31 -62 31 -21 0 -46 -6 -57 -11z m103 -106 c-7 -9 -33 -29 -57 -44 l-44
-28 -24 36 c-13 19 -22 37 -19 40 2 2 12 -9 22 -26 10 -17 22 -31 26 -31 20 0
91 54 96 73 3 12 7 16 10 9 2 -7 -2 -20 -10 -29z"/>
<path d="M3937 6166 c-41 -15 -55 -25 -107 -72 -19 -17 -60 -45 -90 -61 -78
-42 -200 -115 -200 -120 0 -3 10 -1 23 2 17 5 19 4 7 -4 -8 -6 -37 -15 -64
-22 -27 -6 -56 -19 -66 -29 -9 -9 -56 -24 -106 -34 -125 -25 -186 -57 -270
-141 -77 -77 -107 -136 -120 -234 -4 -28 -10 -51 -15 -51 -4 0 -9 30 -11 68
l-3 67 -24 -60 c-18 -45 -24 -80 -24 -140 0 -78 0 -79 -11 -35 l-10 45 -7 -45
-6 -45 -1 46 c-1 25 2 49 7 55 5 5 13 37 19 71 6 35 21 84 33 110 33 70 33 71
2 34 -16 -20 -48 -92 -76 -170 -118 -330 -110 -297 -104 -396 4 -81 4 -87 -9
-60 -7 17 -14 50 -14 75 -2 65 -18 21 -19 -51 -1 -42 5 -68 25 -105 14 -27 30
-51 35 -54 4 -3 3 -28 -4 -55 -14 -55 -11 -185 4 -185 5 0 9 24 10 53 l1 52
13 -70 c16 -81 77 -239 126 -323 21 -35 101 -124 207 -232 96 -96 207 -215
247 -265 113 -140 132 -188 144 -359 4 -64 10 -118 13 -122 26 -25 98 94 120
199 20 92 2 137 -84 220 -38 37 -67 67 -64 67 15 0 85 -41 116 -67 47 -39 80
-115 80 -185 0 -66 -28 -149 -62 -185 -18 -19 -20 -26 -9 -33 8 -4 20 -6 28
-4 45 14 44 13 33 34 -6 12 -7 20 -1 20 5 0 12 -6 14 -12 3 -7 6 5 8 27 1 22
3 46 3 53 1 7 8 17 16 22 11 8 12 12 3 18 -10 6 -9 14 2 36 19 35 19 57 1 33
-8 -10 -17 -14 -20 -8 -3 5 1 16 9 24 17 18 20 31 5 22 -5 -3 -10 -1 -10 4 0
6 5 11 10 11 6 0 10 5 10 10 0 6 -7 10 -15 10 -17 0 -19 9 -5 30 12 20 21 9
35 -47 15 -61 3 -179 -25 -234 -25 -48 -25 -49 1 -49 28 0 105 71 147 134 55
86 37 144 -66 214 -68 47 -119 101 -128 138 -9 37 2 40 20 5 17 -31 74 -81 95
-81 6 0 33 -11 59 -24 119 -61 157 -168 92 -258 -25 -34 -25 -34 0 -41 14 -4
18 -10 13 -23 -6 -17 -5 -17 17 -1 53 37 190 9 190 -38 0 -12 -10 -27 -23 -34
-19 -10 -29 -8 -67 13 -42 23 -48 24 -78 11 -41 -18 -65 -75 -31 -75 5 0 9 8
9 18 0 20 29 52 47 52 5 0 15 -11 23 -24 11 -21 16 -23 37 -15 14 5 23 6 21 2
-24 -47 -38 -86 -33 -93 11 -18 26 -10 20 9 -12 40 45 101 95 101 23 0 69 -30
75 -50 3 -11 12 -20 19 -20 8 0 19 -20 25 -44 14 -58 14 -61 -4 -46 -9 7 -18
10 -22 6 -3 -3 -4 -7 -2 -8 34 -21 69 -35 69 -29 0 5 -7 28 -16 52 -8 24 -22
76 -30 114 -8 39 -17 78 -20 89 -4 12 -2 16 5 12 6 -4 18 -33 26 -64 42 -151
57 -192 65 -187 7 4 6 13 0 26 -10 18 -8 19 27 13 49 -7 113 26 113 59 0 12 4
17 8 12 10 -15 18 -13 95 25 117 56 334 65 477 20 61 -20 67 -20 114 -5 66 22
246 112 274 138 21 19 22 28 22 157 0 132 -1 139 -30 197 -17 34 -50 79 -74
101 -24 22 -42 43 -40 45 3 2 -7 12 -21 21 -14 9 -25 23 -25 31 0 8 -13 21
-30 30 -35 18 -40 36 -8 27 l22 -5 -23 31 -22 32 28 11 c37 14 58 34 87 84 36
61 43 125 17 156 l-20 24 11 -32 c9 -24 9 -38 0 -57 -16 -36 -45 -33 -76 9
-14 19 -40 42 -56 52 -17 9 -30 20 -30 23 0 3 19 14 42 25 56 27 80 81 54 120
-9 14 -26 25 -38 25 -20 0 -20 -1 -5 -18 22 -25 21 -55 -2 -76 -11 -10 -55
-23 -102 -32 -92 -15 -126 -29 -140 -56 -5 -10 -18 -18 -27 -18 -27 0 -62 29
-62 51 0 21 -16 26 -23 7 -8 -25 5 -46 43 -67 21 -11 47 -21 59 -21 11 0 21
-3 21 -7 0 -20 -142 -161 -179 -177 -22 -11 -38 -23 -35 -28 7 -11 -70 -45
-123 -54 -50 -8 -142 17 -168 46 -22 24 -35 18 -27 -12 5 -22 5 -22 -22 -5
-15 10 -71 41 -124 69 -115 60 -146 82 -231 163 -68 64 -111 138 -111 193 0
17 -4 32 -8 32 -11 0 -67 -60 -81 -87 -15 -29 -14 -73 4 -146 8 -34 18 -98 23
-142 5 -44 13 -91 17 -104 6 -17 5 -22 -3 -17 -8 4 -8 -3 -2 -25 20 -69 -48
-149 -126 -149 -77 0 -117 32 -135 105 l-7 30 -1 -30 c-1 -44 33 -93 82 -115
55 -26 80 -25 125 4 49 30 61 46 77 98 l14 43 0 -40 c1 -52 -41 -120 -83 -135
-44 -15 -108 -12 -136 7 -43 28 -82 67 -91 90 -5 14 -36 36 -80 59 -86 43
-169 103 -201 147 -69 92 -92 214 -55 285 23 43 92 92 129 92 19 0 27 4 22 11
-6 11 -37 8 -79 -7 l-20 -7 20 16 c11 9 15 17 7 17 -14 0 -12 21 3 32 6 4 10
11 10 15 1 18 56 93 68 93 7 0 28 16 47 35 18 19 37 32 42 29 4 -3 11 2 14 10
3 9 11 16 16 16 5 0 22 8 36 19 15 10 72 33 127 51 55 19 109 37 120 41 11 4
27 7 35 7 17 0 71 18 110 37 14 6 44 18 68 25 36 11 42 17 42 40 0 41 -26 95
-66 140 -32 35 -65 56 -49 31 3 -6 -21 3 -52 19 -70 35 -108 47 -99 31 9 -14
5 -14 -38 4 -41 17 -46 12 -13 -15 12 -10 20 -20 17 -23 -3 -2 -34 -1 -70 3
-37 5 -67 5 -70 -1 -4 -5 -20 -5 -40 1 -46 13 -46 13 -25 -10 22 -24 20 -24
-35 -5 -38 14 -42 13 -36 -1 6 -17 -11 -16 -61 3 -16 6 -17 5 -4 -11 22 -27
-3 -37 -50 -21 -39 14 -57 7 -43 -17 5 -8 1 -9 -14 -5 -12 4 -31 10 -42 13
-16 5 -19 3 -14 -10 8 -20 -7 -20 -61 -1 -50 18 -48 19 -42 -4 2 -11 1 -35 -3
-53 l-8 -33 -1 40 c-1 22 -6 47 -12 55 -7 11 -8 1 -4 -36 4 -33 3 -54 -4 -59
-7 -4 -11 11 -11 44 0 45 -2 51 -20 48 -11 -2 -25 -8 -31 -14 -6 -6 -17 -9
-24 -6 -8 2 -21 -7 -31 -22 -13 -20 -19 -23 -26 -13 -6 10 -21 0 -56 -37 -40
-41 -52 -62 -67 -120 -10 -38 -27 -81 -37 -94 l-18 -24 0 39 c0 80 18 115 94
189 83 80 165 125 316 173 114 36 189 47 420 62 225 14 333 32 501 86 247 78
337 91 389 54 15 -11 30 -17 33 -14 3 3 4 -3 4 -13 -1 -10 3 -17 9 -16 7 1 17
-11 24 -27 7 -17 15 -30 19 -30 3 0 17 -18 31 -40 13 -22 28 -40 32 -40 4 0
-10 29 -31 64 -22 35 -49 83 -61 105 -19 39 -19 41 -2 41 25 0 53 -33 98 -115
21 -38 71 -104 110 -145 39 -41 74 -88 78 -103 8 -33 -10 -63 -28 -48 -9 7
-12 -4 -14 -40 -2 -58 5 -72 102 -184 38 -44 86 -103 106 -131 21 -28 51 -59
66 -69 29 -19 29 -19 14 2 -46 63 -106 139 -164 208 -69 81 -74 94 -51 135 36
63 8 139 -90 241 -40 43 -84 97 -96 121 -12 24 -35 62 -51 85 l-28 42 32 17
c38 20 128 108 128 126 0 7 -12 -2 -26 -20 -23 -29 -71 -62 -90 -62 -3 0 10
19 31 41 45 51 71 108 79 174 l6 50 -13 -40 -13 -40 -8 53 c-7 58 -40 153 -64
190 -22 34 -23 23 -2 -38 11 -30 19 -73 19 -95 l0 -40 -13 40 c-27 83 -60 137
-115 186 -61 55 -238 152 -228 125 9 -24 -10 -19 -59 15 -25 17 -75 45 -112
62 -59 27 -79 31 -172 34 -72 2 -117 -1 -143 -11z m285 -31 c59 -23 166 -101
155 -111 -2 -3 -30 11 -62 31 -110 66 -230 98 -332 88 -60 -6 -69 1 -20 16 57
18 185 6 259 -24z m-27 -34 c64 -23 118 -57 174 -111 21 -19 28 -28 17 -20
-76 56 -174 111 -161 91 8 -15 8 -15 -62 13 -34 13 -93 29 -132 36 -39 6 -71
14 -71 17 0 13 181 -7 235 -26z m-217 -8 c-10 -2 -26 -2 -35 0 -10 3 -2 5 17
5 19 0 27 -2 18 -5z m588 -114 c88 -60 148 -153 159 -247 l6 -47 -21 57 c-39
110 -94 183 -182 240 -27 16 -48 32 -48 35 0 9 47 -11 86 -38z m-346 -207 c9
-38 9 -71 0 -124 -18 -117 -27 -107 -26 29 1 70 -2 146 -6 168 l-7 40 14 -30
c8 -16 19 -54 25 -83z m240 36 c12 -29 24 -79 27 -112 4 -58 3 -60 -11 -36
-14 23 -15 23 -17 5 0 -11 -9 9 -18 45 -10 36 -23 75 -29 87 -19 34 -14 41 9
13 17 -20 20 -21 14 -5 -4 11 -11 33 -16 48 -14 47 15 15 41 -45z m-104 -86
c8 -30 14 -68 12 -85 -3 -27 -6 -21 -26 43 -13 41 -35 96 -48 122 -35 69 -29
79 11 22 19 -27 42 -73 51 -102z m8 98 c-6 -5 -24 21 -24 34 0 6 6 1 14 -10 8
-10 12 -21 10 -24z m-90 -15 c24 -49 35 -131 26 -185 l-7 -45 -2 45 c-1 40
-19 138 -37 198 -10 34 2 26 20 -13z m337 -38 c6 -21 9 -51 7 -65 -2 -20 -7
-10 -20 38 -9 36 -19 74 -23 85 -7 20 -7 20 9 0 9 -11 21 -37 27 -58z m-764
-11 c-4 -54 -14 -92 -36 -139 -35 -73 -72 -117 -46 -54 23 55 18 57 -15 7 -32
-49 -42 -33 -14 23 21 42 9 30 -30 -30 -17 -25 -37 -49 -45 -51 -9 -3 -11 0
-6 8 6 9 2 9 -16 0 l-23 -13 19 29 c10 16 30 47 44 69 14 22 42 59 63 82 25
28 40 56 44 83 7 44 21 53 26 18 3 -21 5 -20 18 10 8 17 17 32 19 32 2 0 1
-33 -2 -74z m92 -11 c0 -27 -7 -72 -17 -100 -21 -61 -99 -178 -115 -172 -6 2
-31 -18 -56 -45 -24 -27 -46 -46 -49 -43 -3 3 3 15 14 28 37 41 101 142 112
175 6 18 18 39 25 47 8 8 23 47 33 87 16 66 19 70 25 43 6 -25 7 -22 9 20 2
66 18 32 19 -40z m-499 71 c0 -2 -42 -14 -93 -25 -93 -22 -189 -59 -201 -80
-4 -6 -12 -11 -18 -11 -22 0 38 53 81 73 57 25 231 58 231 43z m641 -74 l6
-67 2 75 c3 69 4 72 13 40 15 -50 4 -155 -22 -225 -13 -33 -25 -54 -28 -47 -2
7 -17 -8 -33 -34 -17 -25 -33 -44 -36 -40 -3 3 2 17 11 31 17 26 38 75 32 75
-2 0 -23 -25 -46 -56 -23 -30 -44 -53 -48 -50 -3 3 2 14 10 23 61 69 118 213
118 299 0 76 13 60 21 -24z m66 -72 c-4 -67 -32 -168 -44 -156 -2 2 3 38 11
80 9 41 16 108 17 148 1 66 2 70 11 38 6 -19 8 -69 5 -110z m-127 66 c0 -75
-16 -126 -63 -198 -35 -54 -117 -142 -125 -134 -2 3 17 32 42 65 62 81 106
177 120 262 6 38 14 69 18 69 4 0 8 -29 8 -64z m364 -16 c4 -30 3 -36 -3 -20
-13 41 -22 97 -12 80 5 -8 11 -35 15 -60z m36 11 c-1 -22 -3 -19 -15 14 -18
50 -18 55 0 31 8 -11 15 -31 15 -45z m-1108 -1 c-53 -41 -124 -134 -162 -210
-50 -101 -61 -120 -66 -120 -3 0 -2 17 1 38 l5 37 -20 -40 -19 -40 6 40 c3 22
11 56 17 75 13 39 78 142 84 135 3 -3 -1 -13 -9 -22 -7 -10 5 0 27 21 23 21
45 39 50 38 5 -1 23 12 39 27 35 33 76 61 88 61 5 0 -14 -18 -41 -40z m281 7
c-46 -51 -160 -233 -155 -249 1 -5 -2 -7 -8 -5 -5 1 -28 -18 -50 -43 l-41 -45
7 35 c3 19 17 55 31 80 14 25 21 40 15 35 -6 -6 -25 -35 -42 -65 -23 -41 -30
-47 -25 -26 3 16 17 48 30 70 29 48 92 123 75 89 -18 -39 -3 -26 42 35 55 72
67 86 86 88 8 2 22 10 30 18 24 24 28 9 5 -17z m107 17 c0 -3 -16 -26 -35 -51
-19 -25 -35 -52 -35 -60 0 -8 -4 -11 -10 -8 -6 4 -7 -1 -3 -11 6 -15 9 -14 26
7 11 13 18 17 14 8 -6 -19 -107 -159 -114 -159 -2 0 10 25 27 55 17 30 29 55
26 55 -2 0 -24 -27 -47 -60 -23 -33 -45 -57 -50 -55 -4 3 -12 -3 -18 -12 -5
-10 -13 -15 -17 -11 -11 12 60 149 105 203 50 60 131 122 131 99z m567 -126
c-2 -18 -4 -4 -4 32 0 36 2 50 4 33 2 -18 2 -48 0 -65z m-902 55 c-15 -15 -36
-41 -47 -58 -12 -17 -5 -12 17 13 40 46 65 57 39 17 -17 -26 -7 -34 14 -13 30
30 7 -11 -50 -90 -35 -47 -66 -93 -71 -101 -5 -11 -6 -9 -3 7 6 30 -8 28 -29
-4 -9 -14 -19 -23 -23 -19 -4 3 -2 9 3 13 6 4 18 25 27 47 17 38 17 39 0 16
-9 -13 -29 -47 -44 -75 -27 -49 -38 -44 -18 8 17 44 0 28 -23 -21 -17 -37 -22
-43 -25 -27 -9 59 91 201 198 280 55 41 73 44 35 7z m499 0 c-6 -25 -24 -56
-24 -41 0 10 22 68 26 68 2 0 1 -12 -2 -27z m-814 -88 c5 3 5 -7 0 -22 -5 -16
-16 -50 -24 -78 -36 -112 -56 -132 -56 -55 0 57 57 189 68 159 2 -5 8 -7 12
-4z m107 -577 c-2 -13 -4 -5 -4 17 -1 22 1 32 4 23 2 -10 2 -28 0 -40z m-51
-15 c-6 -49 -31 -101 -43 -89 -2 2 3 36 12 75 20 87 41 96 31 14z m-77 -5
c-11 -21 -11 -22 4 -9 10 7 17 10 17 6 0 -18 -32 -114 -43 -130 -11 -15 -13
-9 -11 38 2 50 30 134 41 123 3 -2 -1 -15 -8 -28z m-186 -210 c-3 -27 -10 -48
-15 -48 -5 0 -7 14 -3 33 16 81 26 89 18 15z m2232 -437 c-3 -6 -14 -11 -23
-11 -15 1 -15 2 2 15 21 16 32 13 21 -4z m85 -115 c0 -39 -6 -31 -14 19 -5 29
-4 36 3 25 6 -8 11 -28 11 -44z m95 34 c10 -11 14 -20 9 -20 -5 0 -15 9 -22
20 -7 11 -11 20 -9 20 2 0 12 -9 22 -20z m-68 -92 c-2 -13 -4 -5 -4 17 -1 22
1 32 4 23 2 -10 2 -28 0 -40z m-120 -20 c-3 -8 -6 -5 -6 6 -1 11 2 17 5 13 3
-3 4 -12 1 -19z m-84 -49 c-17 -30 -113 -98 -138 -99 -5 0 4 9 22 19 17 11 53
41 80 68 26 26 50 47 52 46 2 -1 -5 -17 -16 -34z m44 19 c-3 -8 -6 -5 -6 6 -1
11 2 17 5 13 3 -3 4 -12 1 -19z m25 -20 c-8 -8 -9 -4 -5 13 4 13 8 18 11 10 2
-7 -1 -18 -6 -23z m-139 -16 c-26 -36 -99 -80 -143 -87 -30 -5 -28 -3 16 15
28 11 71 40 95 64 48 48 65 52 32 8z m275 -58 c-4 -23 -53 -48 -76 -39 -14 6
-10 12 22 41 40 35 61 34 54 -2z m-868 -120 c-7 -36 -15 -63 -17 -60 -3 3 -2
40 2 82 5 59 9 74 17 60 7 -12 6 -39 -2 -82z m-83 64 c-3 -8 -6 -5 -6 6 -1 11
2 17 5 13 3 -3 4 -12 1 -19z m133 -7 c0 -9 -11 -48 -25 -87 l-25 -69 4 52 c6
65 26 134 37 127 5 -3 9 -13 9 -23z m29 -111 c-17 -50 -34 -90 -37 -90 -12 0
12 111 35 160 39 83 41 37 2 -70z m-851 46 c46 -33 53 -46 22 -46 -11 0 -40
-5 -65 -12 -41 -11 -46 -10 -59 7 -8 12 -13 34 -10 52 2 18 -1 35 -6 38 -6 3
-10 10 -10 16 0 13 78 -20 128 -55z m964 -58 c-9 -9 -12 1 -11 43 l1 54 11
-43 c7 -31 7 -46 -1 -54z m79 27 c23 -52 39 -182 21 -171 -7 4 -12 24 -13 44
-1 20 -4 48 -8 62 -6 20 -9 14 -16 -35 l-9 -60 -6 80 c-5 77 -3 125 7 125 2 0
13 -20 24 -45z m-104 -72 c-2 -16 -4 -3 -4 27 0 30 2 43 4 28 2 -16 2 -40 0
-55z m886 -2 c27 -46 15 -37 -23 17 -19 26 -25 39 -14 30 10 -9 27 -30 37 -47z
m-677 -54 c-23 -125 -24 -126 -25 -62 -1 53 8 109 26 155 14 38 14 -17 -1 -93z
m616 18 c9 -17 7 -16 -16 4 -25 24 -38 17 -14 -7 7 -7 9 -12 5 -12 -9 0 -57
72 -57 86 0 15 68 -44 82 -71z m-18 69 c5 -14 4 -15 -9 -4 -17 14 -19 20 -6
20 5 0 12 -7 15 -16z m-419 -99 c3 -44 3 -74 -1 -67 -3 6 -9 10 -14 7 -9 -5
-14 7 -25 63 -7 33 10 47 18 15 2 -10 2 5 -1 32 -3 37 -1 47 7 40 6 -6 13 -47
16 -90z m274 -70 c48 -53 56 -71 17 -35 -23 21 -36 28 -33 18 17 -46 17 -52 0
-29 -25 34 -72 143 -79 183 -4 26 3 18 31 -37 20 -38 49 -83 64 -100z m-178
38 c-8 -14 -10 -6 -11 34 0 73 14 102 18 36 2 -29 -2 -61 -7 -70z m-1377 92
c-4 -8 -11 -15 -16 -15 -6 0 -5 6 2 15 7 8 14 15 16 15 2 0 1 -7 -2 -15z
m1225 -57 c-1 -72 -1 -73 -14 -38 -16 43 -20 93 -5 70 8 -12 10 -9 10 13 0 15
2 27 5 27 3 0 5 -33 4 -72z m92 44 c0 -14 2 -13 9 3 14 35 21 -5 12 -65 l-8
-55 -17 54 c-9 30 -17 63 -17 73 0 23 20 13 21 -10z m150 -55 c6 -29 25 -79
41 -112 22 -45 24 -54 9 -35 -12 14 -29 43 -39 65 -11 22 -24 51 -31 65 -7 17
-10 19 -7 5 2 -11 7 -38 10 -60 5 -35 4 -37 -5 -15 -6 14 -12 58 -13 98 -1 83
13 78 35 -11z m145 12 c15 -22 24 -42 21 -45 -6 -6 -87 97 -87 111 0 13 36
-23 66 -66z m45 9 c10 -21 17 -38 15 -38 -5 0 -56 90 -56 99 0 8 17 -17 41
-61z m-510 -28 l-8 -65 -2 66 c0 36 2 69 6 73 12 12 13 -5 4 -74z m473 -49
c-9 -9 -94 98 -94 119 0 8 22 -15 50 -50 27 -36 47 -66 44 -69z m-1470 104
c30 -13 64 -20 109 -24 4 -1 7 -8 7 -17 0 -17 -6 -16 -97 18 -29 11 -55 24
-58 29 -8 12 -4 12 39 -6z m1263 -7 c-3 -8 -6 -5 -6 6 -1 11 2 17 5 13 3 -3 4
-12 1 -19z m-1367 -18 c0 -13 -28 -25 -38 -16 -3 4 0 11 8 16 20 13 30 12 30
0z m260 -21 c0 -16 -4 -28 -9 -25 -8 5 -3 56 5 56 2 0 4 -14 4 -31z m-435 11
c-3 -5 -11 -10 -16 -10 -6 0 -7 5 -4 10 3 6 11 10 16 10 6 0 7 -4 4 -10z m245
-66 c0 -16 -29 1 -43 25 -26 44 -20 49 13 13 17 -18 30 -35 30 -38z m228 41
c20 -23 18 -41 -5 -27 -10 7 -28 52 -20 52 2 0 13 -11 25 -25z m-278 -40 c0
-8 -4 -15 -10 -15 -5 0 -10 7 -10 15 0 8 5 15 10 15 6 0 10 -7 10 -15z m77
-22 c-15 -16 -17 -16 -17 -1 0 9 6 18 13 21 20 7 22 -2 4 -20z m249 -35 c45
-51 73 -112 74 -162 0 -31 -3 -37 -16 -32 -9 4 -23 1 -30 -5 -11 -9 -14 -6
-14 15 0 44 -40 148 -75 198 l-34 47 29 -11 c16 -5 46 -28 66 -50z m-466 37
c-7 -8 -17 -15 -22 -15 -6 0 -5 7 2 15 7 8 17 15 22 15 6 0 5 -7 -2 -15z m60
0 c0 -8 -4 -15 -10 -15 -5 0 -25 -16 -45 -35 -29 -30 -35 -32 -35 -16 0 10 17
33 38 50 42 34 52 37 52 16z m205 -34 c-4 -14 1 -21 25 -29 16 -6 31 -17 31
-24 1 -7 3 -26 5 -42 3 -33 -32 -106 -52 -106 -17 0 -54 62 -54 92 0 13 5 29
12 36 15 15 54 16 63 2 3 -5 12 -10 18 -10 7 1 1 10 -13 21 -17 14 -33 19 -52
15 -15 -3 -28 -1 -28 3 0 5 -3 17 -7 26 -5 14 -2 16 15 10 16 -5 22 -2 22 9 0
9 5 16 11 16 6 0 8 -8 4 -19z m-195 -20 c0 -3 -11 -7 -25 -7 -20 -2 -23 1 -15
11 11 13 40 10 40 -4z m-1 -37 c3 -16 1 -17 -13 -5 -19 16 -21 34 -3 29 6 -3
14 -13 16 -24z m-13 -39 c12 -50 -12 -116 -31 -85 -3 5 -11 7 -18 4 -8 -3 -13
6 -14 23 -1 24 0 25 7 8 7 -16 9 -17 9 -3 1 9 -3 20 -9 23 -15 9 -12 25 4 25
8 0 17 -14 21 -31 4 -19 11 -27 16 -22 17 17 -11 63 -38 63 -27 0 -30 15 -6
29 24 13 51 -3 59 -34z m524 -46 c-17 -31 -5 -34 19 -3 11 15 21 20 21 13 -1
-24 -28 -52 -45 -46 -18 8 -20 28 -3 45 18 18 20 15 8 -9z m-133 -15 c-3 -3
-12 -4 -19 -1 -8 3 -5 6 6 6 11 1 17 -2 13 -5z m-217 -28 c0 -8 -4 -18 -10
-21 -5 -3 -10 3 -10 14 0 12 5 21 10 21 6 0 10 -6 10 -14z m230 5 c0 -7 -33
-41 -39 -41 -3 0 -7 10 -7 23 -1 17 4 22 22 22 13 0 24 -2 24 -4z m152 -26
c11 2 15 -2 11 -11 -4 -10 3 -14 24 -14 17 0 33 -8 41 -20 10 -16 10 -20 0
-20 -8 0 -5 -5 5 -11 9 -5 17 -18 17 -27 0 -10 5 -23 11 -29 6 -6 9 -17 7 -23
-2 -7 -19 13 -38 44 -23 37 -49 65 -74 79 -22 12 -42 29 -44 37 -4 12 -2 13 9
4 8 -6 22 -10 31 -9z m-588 -3 c7 -12 -5 -52 -15 -52 -5 0 -9 14 -9 30 0 28
13 40 24 22z m216 -21 c0 -5 -7 -12 -16 -15 -22 -9 -24 -8 -24 9 0 8 9 15 20
15 11 0 20 -4 20 -9z m585 -91 c3 -5 -1 -10 -9 -10 -9 0 -16 5 -16 10 0 6 4
10 9 10 6 0 13 -4 16 -10z m7 -30 c6 0 9 -3 5 -6 -3 -4 1 -13 9 -21 19 -20 14
-47 -10 -51 -24 -5 -33 6 -42 52 -6 35 -5 38 10 33 10 -4 23 -7 28 -7z"/>
<path d="M3801 5744 c0 -11 3 -14 6 -6 3 7 2 16 -1 19 -3 4 -6 -2 -5 -13z"/>
<path d="M3283 5578 c-15 -20 -25 -38 -20 -38 3 0 12 11 21 25 17 26 16 35 -1
13z"/>
<path d="M3761 3522 c-7 -13 -7 -22 1 -30 21 -21 37 -13 35 15 -3 33 -22 41
-36 15z"/>
<path d="M4590 4989 c-104 -20 -162 -44 -201 -81 -38 -37 -108 -158 -91 -158
5 0 34 20 65 44 63 49 121 79 143 74 11 -2 2 -18 -33 -56 -26 -30 -58 -71 -70
-93 -36 -62 -3 -49 54 21 46 56 126 111 141 95 4 -3 -2 -11 -13 -17 -26 -14
-166 -150 -161 -155 9 -10 73 33 114 76 27 29 45 41 48 34 23 -54 73 -69 53
-16 -14 38 -3 40 16 2 16 -31 16 -33 -1 -46 -22 -16 -17 -16 24 -2 28 9 30 13
21 31 -9 18 -8 19 10 13 12 -4 21 -2 21 4 0 6 6 8 13 6 16 -6 57 54 57 84 0
12 10 40 23 61 25 45 18 70 -24 81 -34 10 -155 8 -209 -2z"/>
<path d="M4681 4667 c-26 -43 -26 -48 1 -44 25 4 47 52 30 69 -6 6 -17 -2 -31
-25z"/>
<path d="M3393 4400 c-60 -36 -66 -140 -12 -202 15 -16 19 -18 15 -6 -3 10 -8
39 -11 65 -11 94 41 129 115 78 28 -19 44 -24 64 -19 33 8 36 -14 5 -42 -26
-24 -59 -87 -59 -114 0 -27 35 -60 63 -60 20 1 20 2 5 11 -31 18 -22 52 22 79
22 14 44 24 48 22 13 -4 30 -67 22 -82 -7 -12 2 -15 50 -17 70 -3 94 15 65 47
-10 11 -23 20 -30 20 -21 0 -45 36 -45 68 0 29 -2 32 -24 26 -19 -4 -33 5 -77
52 -84 88 -153 113 -216 74z"/>
<path d="M4166 4262 c-13 -22 109 -98 202 -127 23 -7 23 -6 5 14 -9 12 -25 21
-35 21 -10 0 -28 10 -40 22 -13 13 -32 21 -45 20 -16 -3 -23 2 -23 14 0 10 -3
14 -7 11 -3 -4 -17 2 -29 14 -12 12 -24 16 -28 11z"/>
<path d="M4515 4234 c29 -31 32 -60 8 -86 -20 -22 -12 -32 17 -23 29 9 53 50
47 78 -6 23 -54 57 -81 57 -11 0 -9 -6 9 -26z"/>
<path d="M3780 4039 c-41 -17 -60 -40 -60 -75 0 -67 95 -100 145 -49 31 30 32
66 3 99 -28 30 -55 38 -88 25z"/>
<path d="M3564 4025 c21 -16 32 -13 21 4 -3 6 -14 11 -23 11 -15 -1 -15 -2 2
-15z"/>
<path d="M3675 4009 c-4 -6 -5 -12 -2 -15 2 -3 7 2 10 11 7 17 1 20 -8 4z"/>
<path d="M6420 3893 c-25 -14 -47 -27 -48 -29 -2 -1 -1 -12 3 -23 6 -20 6 -20
48 3 32 19 42 30 42 50 1 14 1 26 0 26 0 0 -20 -12 -45 -27z m0 -27 c0 -2 -7
-7 -16 -10 -8 -3 -12 -2 -9 4 6 10 25 14 25 6z"/>
<path d="M1970 3890 c0 -5 7 -10 16 -10 8 0 12 5 9 10 -3 6 -10 10 -16 10 -5
0 -9 -4 -9 -10z"/>
<path d="M6516 3881 c-3 -5 1 -11 9 -15 8 -3 15 -1 15 4 0 13 -18 22 -24 11z"/>
<path d="M5785 3850 c-8 -13 9 -20 24 -11 10 6 9 10 -3 14 -8 3 -18 2 -21 -3z"/>
<path d="M2305 3840 c3 -5 0 -11 -7 -12 -17 -1 -28 -4 -56 -13 -17 -6 -21 -12
-16 -29 10 -32 11 -32 54 10 41 40 48 54 29 54 -5 0 -7 -4 -4 -10z"/>
<path d="M5794 3819 c-3 -6 -17 -8 -31 -4 -17 4 -32 0 -44 -11 -25 -23 -24
-33 4 -30 28 3 97 37 97 48 0 12 -18 10 -26 -3z"/>
<path d="M6310 3794 c0 -8 5 -12 10 -9 6 4 8 11 5 16 -9 14 -15 11 -15 -7z"/>
<path d="M5970 3765 c-78 -16 -128 -42 -183 -97 -198 -198 14 -394 250 -232
83 57 128 114 141 176 23 118 -64 183 -208 153z"/>
<path d="M2384 3746 c-66 -30 -88 -90 -64 -177 15 -55 130 -161 200 -184 103
-34 208 -15 244 45 75 128 -84 314 -278 326 -48 3 -81 0 -102 -10z"/>
<path d="M5710 3750 c-9 -6 -10 -10 -3 -10 6 0 15 5 18 10 8 12 4 12 -15 0z"/>
<path d="M6280 3691 c0 -16 6 -33 13 -38 15 -12 47 -13 47 -1 0 4 -5 8 -11 8
-6 0 -8 9 -4 21 5 14 2 25 -6 30 -26 16 -39 9 -39 -20z"/>
<path d="M2238 3653 c-18 -5 -22 -53 -5 -53 5 0 6 7 3 16 -4 11 1 18 14 21 11
3 20 9 20 14 0 9 -4 10 -32 2z"/>
<path d="M2880 3564 c5 -20 6 -42 3 -49 -2 -8 5 -18 16 -24 31 -17 36 -13 10
9 -13 10 -19 19 -13 20 5 0 15 -5 22 -12 21 -21 13 7 -8 30 -11 12 -20 28 -20
36 0 8 -4 17 -9 20 -5 4 -5 -9 -1 -30z"/>
<path d="M2230 3580 c0 -5 5 -10 11 -10 5 0 7 5 4 10 -3 6 -8 10 -11 10 -2 0
-4 -4 -4 -10z"/>
<path d="M2240 3540 c0 -5 5 -10 10 -10 6 0 10 5 10 10 0 6 -4 10 -10 10 -5 0
-10 -4 -10 -10z"/>
<path d="M2250 3516 c0 -2 8 -10 18 -17 15 -13 16 -12 3 4 -13 16 -21 21 -21
13z"/>
<path d="M5621 3498 c0 -13 4 -32 9 -43 8 -19 9 -18 9 4 1 24 1 24 16 5 14
-18 14 -17 15 12 0 20 -6 34 -16 38 -27 10 -34 7 -33 -16z"/>
<path d="M6170 3480 c0 -6 7 -10 15 -10 8 0 15 2 15 4 0 2 -7 6 -15 10 -8 3
-15 1 -15 -4z"/>
<path d="M6130 3451 c0 -6 5 -11 10 -11 6 0 10 -5 10 -11 0 -6 -8 -8 -19 -4
-13 4 -28 -3 -45 -20 -14 -14 -22 -25 -18 -25 5 0 13 5 20 12 9 9 15 9 24 0 9
-9 16 -8 30 5 22 20 23 36 3 53 -10 9 -15 9 -15 1z"/>
<path d="M2878 3425 c-3 -14 -4 -25 -2 -25 2 0 15 11 30 25 l27 25 -25 0 c-19
0 -27 -6 -30 -25z"/>
<path d="M5540 3413 c-13 -15 -12 -16 2 -10 9 3 18 1 20 -5 3 -8 11 -9 24 -3
17 7 17 8 2 12 -10 3 -18 9 -18 14 0 14 -13 10 -30 -8z"/>
<path d="M3825 3373 c-27 -19 -57 -38 -65 -43 -8 -5 -11 -12 -7 -16 4 -4 13
-2 19 4 17 17 28 15 21 -4 -4 -12 0 -15 18 -12 13 2 23 9 22 16 -2 6 3 12 10
12 15 1 71 49 64 56 -3 3 -14 1 -25 -5 -29 -16 -40 -13 -18 4 41 31 9 21 -39
-12z"/>
<path d="M2759 3364 c-18 -13 -39 -24 -46 -24 -7 0 -13 -4 -13 -10 0 -13 37
-13 46 1 3 6 17 8 30 5 17 -5 24 -2 24 9 0 8 5 15 10 15 15 0 12 17 -4 23 -8
3 -29 -5 -47 -19z"/>
<path d="M5500 3375 c0 -8 7 -15 15 -15 9 0 12 6 9 15 -4 8 -10 15 -15 15 -5
0 -9 -7 -9 -15z"/>
<path d="M6028 3363 c7 -3 16 -2 19 1 4 3 -2 6 -13 5 -11 0 -14 -3 -6 -6z"/>
<path d="M6040 3345 c-14 -8 -20 -14 -15 -14 6 0 21 6 35 14 14 8 21 14 15 14
-5 0 -21 -6 -35 -14z"/>
<path d="M3891 3332 c-6 -12 -11 -27 -11 -34 1 -7 8 0 16 15 9 16 13 31 11 34
-3 2 -10 -4 -16 -15z"/>
<path d="M5465 3340 c-3 -5 -1 -10 4 -10 6 0 11 5 11 10 0 6 -2 10 -4 10 -3 0
-8 -4 -11 -10z"/>
<path d="M5978 3343 c7 -3 16 -2 19 1 4 3 -2 6 -13 5 -11 0 -14 -3 -6 -6z"/>
<path d="M5386 3325 c4 -8 10 -15 15 -15 4 0 6 7 3 15 -4 8 -10 15 -15 15 -4
0 -6 -7 -3 -15z"/>
<path d="M5255 3270 c-3 -5 1 -10 9 -10 9 0 16 5 16 10 0 6 -4 10 -9 10 -6 0
-13 -4 -16 -10z"/>
<path d="M3956 3261 c-3 -5 1 -11 9 -15 8 -3 15 -1 15 4 0 13 -18 22 -24 11z"/>
<path d="M4096 3254 c-9 -8 -16 -26 -16 -39 0 -30 30 -43 37 -16 3 13 10 18
21 13 15 -5 15 -4 3 11 -11 15 -11 17 2 17 21 0 28 -26 15 -56 -12 -25 -18
-26 -63 -9 -15 6 -13 2 7 -13 14 -12 29 -22 32 -22 3 0 29 -14 57 -31 46 -27
56 -29 78 -18 l26 12 -35 14 c-45 19 -44 17 -30 45 l11 23 -20 -22 c-19 -23
-41 -29 -54 -16 -4 3 3 11 16 17 28 15 35 61 11 87 -21 23 -76 25 -98 3z"/>
<path d="M4630 3225 c0 -5 5 -17 10 -25 5 -8 10 -10 10 -5 0 6 -5 17 -10 25
-5 8 -10 11 -10 5z"/>
<path d="M4650 3166 c0 -9 5 -16 10 -16 6 0 10 4 10 9 0 6 -4 13 -10 16 -5 3
-10 -1 -10 -9z"/>
<path d="M4620 3140 c0 -5 5 -10 10 -10 6 0 10 5 10 10 0 6 -4 10 -10 10 -5 0
-10 -4 -10 -10z"/>
<path d="M4857 3144 c-3 -4 1 -13 9 -21 19 -20 26 -13 10 9 -7 10 -16 15 -19
12z"/>
<path d="M4443 3135 c4 -4 0 -18 -8 -31 -12 -19 -12 -24 0 -34 8 -7 15 -21 15
-31 0 -21 16 -34 25 -19 5 8 11 7 21 -1 20 -16 6 -32 -22 -25 -18 5 -24 2 -24
-9 0 -9 5 -13 11 -9 8 5 10 -6 7 -35 -2 -22 0 -41 4 -41 5 0 8 4 8 8 0 5 9 18
20 30 11 12 19 25 18 29 -1 4 1 18 6 31 10 29 -29 81 -63 81 -23 1 -23 2 -7
20 15 17 15 19 -1 32 -10 7 -15 9 -10 4z"/>
<path d="M4514 3128 c-4 -7 -3 -8 4 -4 7 4 18 -13 29 -44 20 -56 29 -64 28
-22 -2 60 -40 104 -61 70z"/>
<path d="M3780 3110 c0 -5 7 -10 16 -10 8 0 12 5 9 10 -3 6 -10 10 -16 10 -5
0 -9 -4 -9 -10z"/>
<path d="M3760 3093 c0 -17 16 -31 27 -25 9 6 6 11 -7 20 -11 7 -20 9 -20 5z"/>
<path d="M4680 3089 c0 -5 5 -7 10 -4 6 3 10 8 10 11 0 2 -4 4 -10 4 -5 0 -10
-5 -10 -11z"/>
<path d="M3844 3069 c-3 -6 0 -15 7 -20 11 -7 11 -9 1 -9 -7 0 -10 -5 -6 -11
8 -14 24 8 24 34 0 19 -15 23 -26 6z"/>
<path d="M4347 3073 c9 -3 9 -9 1 -22 -17 -27 3 -75 33 -79 19 -3 22 -1 12 9
-17 18 -16 29 3 29 8 0 12 5 9 10 -3 6 -15 10 -26 10 -10 0 -19 5 -19 11 0 6
7 9 15 5 9 -3 15 0 15 8 0 14 -22 27 -43 25 -9 0 -9 -2 0 -6z"/>
<path d="M4650 3039 c0 -5 5 -7 10 -4 6 3 10 8 10 11 0 2 -4 4 -10 4 -5 0 -10
-5 -10 -11z"/>
<path d="M3900 3030 c0 -5 7 -7 15 -4 8 4 15 8 15 10 0 2 -7 4 -15 4 -8 0 -15
-4 -15 -10z"/>
<path d="M4600 3018 c-14 -6 -20 -12 -13 -15 7 -2 23 3 35 11 25 18 15 20 -22
4z"/>
<path d="M4310 3008 c0 -9 5 -20 10 -23 13 -8 13 5 0 25 -8 13 -10 13 -10 -2z"/>
<path d="M3913 2988 c6 -4 23 -5 37 -2 20 4 22 3 10 -5 -12 -9 -10 -10 9 -8
14 2 27 10 29 18 3 12 2 12 -6 0 -6 -8 -12 -9 -16 -3 -3 5 -22 10 -41 9 -20
-1 -30 -4 -22 -9z"/>
<path d="M4415 2960 c3 -5 11 -10 16 -10 6 0 7 5 4 10 -3 6 -11 10 -16 10 -6
0 -7 -4 -4 -10z"/>
<path d="M4435 2910 c3 -5 8 -10 11 -10 2 0 4 5 4 10 0 6 -5 10 -11 10 -5 0
-7 -4 -4 -10z"/>
<path d="M4160 2880 c-27 -27 -25 -55 6 -79 24 -19 29 -19 54 -6 33 17 42 37
30 69 -15 40 -58 48 -90 16z"/>
<path d="M4451 2881 c-10 -7 -11 -13 -2 -27 9 -17 10 -17 11 -1 0 9 5 17 10
17 6 0 10 5 10 10 0 12 -10 13 -29 1z"/>
<path d="M4575 2831 c3 -6 -9 -8 -29 -4 -56 9 -86 -3 -86 -34 0 -14 -8 -35
-17 -46 -14 -16 -15 -19 -3 -15 8 2 23 19 32 38 14 27 19 30 24 17 7 -20 24
-22 24 -3 0 8 19 19 47 25 35 9 43 15 33 22 -19 11 -33 12 -25 0z"/>
<path d="M4261 2766 c-9 -11 -9 -15 1 -19 10 -4 10 -8 -2 -16 -12 -9 -10 -11
10 -11 41 0 52 12 34 38 -18 26 -27 27 -43 8z"/>
<path d="M3780 2725 c0 -8 -8 -15 -17 -15 -17 -1 -17 -2 -1 -13 15 -12 15 -14
-3 -25 -17 -11 -20 -10 -17 4 2 9 -2 19 -8 21 -17 6 -27 -29 -12 -39 9 -5 7
-8 -7 -8 -19 -1 -19 -2 3 -17 26 -18 27 -26 6 -48 -21 -20 -12 -30 15 -16 15
8 20 20 19 45 -1 20 6 41 15 51 15 15 25 75 12 75 -3 0 -5 -7 -5 -15z"/>
<path d="M4476 2732 c-7 -12 22 -38 31 -28 4 3 0 14 -9 22 -9 10 -18 12 -22 6z"/>
<path d="M3655 2680 c-4 -7 -20 -36 -35 -66 -15 -30 -30 -51 -34 -47 -3 4 -4
-9 -1 -28 5 -31 4 -32 -6 -11 -7 13 -18 21 -27 17 -7 -3 -20 -5 -28 -5 -8 0
-14 -7 -14 -16 0 -13 3 -14 15 -4 11 10 18 9 30 -3 9 -10 11 -18 5 -22 -5 -3
-10 -10 -10 -15 0 -6 18 0 40 11 22 12 40 27 40 34 0 8 7 11 19 8 10 -3 22 0
25 6 4 6 0 11 -10 11 -14 0 -15 7 -10 42 4 23 12 48 17 54 7 8 7 19 1 30 -7
12 -11 13 -17 4z"/>
<path d="M3800 2635 c0 -33 15 -33 16 0 1 14 -2 25 -7 25 -5 0 -9 -11 -9 -25z"/>
<path d="M3555 2620 c-3 -5 -1 -10 5 -10 6 0 8 -4 5 -10 -3 -5 0 -7 9 -4 8 3
12 12 9 20 -6 16 -19 18 -28 4z"/>
<path d="M3680 2600 c0 -11 -5 -20 -11 -20 -5 0 -7 -5 -3 -12 5 -8 13 -4 26
11 22 28 23 41 3 41 -8 0 -15 -9 -15 -20z"/>
<path d="M3535 2580 c3 -5 8 -10 11 -10 2 0 4 5 4 10 0 6 -5 10 -11 10 -5 0
-7 -4 -4 -10z"/>
<path d="M3444 2555 c-4 -8 -12 -15 -20 -15 -8 0 -19 -9 -26 -20 -7 -11 -19
-20 -26 -20 -9 0 -11 -7 -7 -20 4 -11 2 -20 -4 -20 -6 0 -11 -6 -11 -14 0 -8
-7 -16 -15 -20 -8 -3 -15 -14 -15 -24 0 -10 -11 -24 -24 -32 -20 -10 -44 -50
-31 -50 10 0 182 93 195 106 12 12 12 14 -3 14 -10 0 -15 -4 -12 -10 3 -5 1
-10 -4 -10 -6 0 -11 6 -11 14 0 19 40 32 50 16 6 -9 12 -10 26 -1 18 10 18 10
1 11 -15 0 -17 5 -12 30 6 26 4 30 -14 30 -22 0 -29 16 -9 22 13 5 2 28 -13
28 -5 0 -12 -7 -15 -15z m36 -64 c0 -5 -7 -11 -15 -15 -15 -5 -20 5 -8 17 9
10 23 9 23 -2z"/>
<path d="M3300 2456 c0 -9 5 -16 10 -16 6 0 10 4 10 9 0 6 -4 13 -10 16 -5 3
-10 -1 -10 -9z"/>
<path d="M3258 2433 c7 -3 16 -2 19 1 4 3 -2 6 -13 5 -11 0 -14 -3 -6 -6z"/>
<path d="M3202 2413 c-13 -3 -26 -11 -29 -19 -3 -8 -14 -14 -24 -14 -10 0 -19
-3 -19 -8 0 -4 -14 -13 -31 -21 -18 -8 -34 -22 -36 -32 -3 -11 -6 -19 -7 -19
0 0 -19 -7 -41 -15 -28 -10 -33 -14 -17 -15 23 0 32 -20 9 -20 -7 0 -17 -15
-23 -32 -5 -19 -15 -32 -23 -30 -9 2 -11 -3 -7 -13 4 -10 2 -14 -5 -9 -12 7
-31 -15 -23 -28 5 -8 106 43 139 71 11 9 36 25 57 35 20 10 39 27 41 38 3 11
10 17 16 13 7 -4 8 0 4 11 -5 13 -3 16 10 11 9 -3 19 -2 22 3 11 17 27 11 20
-7 -5 -14 -3 -15 6 -6 16 16 1 36 -23 30 -18 -5 -19 -4 -4 12 12 13 13 20 4
29 -8 8 -8 15 2 27 7 8 11 14 9 14 -2 -1 -14 -4 -27 -6z m-52 -83 c0 -5 -4
-10 -10 -10 -5 0 -10 5 -10 10 0 6 5 10 10 10 6 0 10 -4 10 -10z"/>
<path d="M3254 2395 c-16 -12 -16 -14 -3 -15 9 0 22 7 29 15 16 19 0 19 -26 0z"/>
<path d="M2910 2229 c0 -5 5 -7 10 -4 6 3 10 8 10 11 0 2 -4 4 -10 4 -5 0 -10
-5 -10 -11z"/>
<path d="M2930 2205 c0 -8 -5 -15 -12 -15 -6 0 -8 -3 -5 -6 8 -8 37 14 37 27
0 5 -4 9 -10 9 -5 0 -10 -7 -10 -15z"/>
<path d="M1819 5415 c-8 -15 5 -72 13 -59 4 6 4 24 -1 39 -4 16 -10 25 -12 20z"/>
<path d="M1736 5351 c-3 -5 3 -11 15 -14 16 -4 18 -3 8 9 -13 16 -16 17 -23 5z"/>
<path d="M6408 5403 c6 -2 10 -8 7 -13 -3 -4 -1 -19 4 -32 9 -21 10 -19 10 15
1 29 -3 37 -16 36 -11 0 -13 -3 -5 -6z"/>
<path d="M6480 5345 c-7 -8 -19 -15 -26 -15 -8 0 -14 -4 -14 -9 0 -5 -8 -12
-18 -15 -10 -4 -33 -19 -50 -34 l-32 -28 36 -17 c45 -22 62 -21 102 3 38 23
55 62 47 102 -7 31 -26 36 -45 13z"/>
<path d="M6320 5343 c0 -5 11 -8 24 -8 13 0 22 3 19 8 -2 4 -13 7 -24 7 -10 0
-19 -3 -19 -7z"/>
<path d="M3975 2290 c-3 -5 -1 -10 4 -10 6 0 11 5 11 10 0 6 -2 10 -4 10 -3 0
-8 -4 -11 -10z"/>
<path d="M4407 2184 c-8 -8 1 -24 14 -24 5 0 9 7 9 15 0 15 -12 20 -23 9z"/>
<path d="M4090 2170 c0 -5 5 -10 10 -10 6 0 10 5 10 10 0 6 -4 10 -10 10 -5 0
-10 -4 -10 -10z"/>
<path d="M4225 2340 c-3 -5 -1 -10 4 -10 6 0 11 5 11 10 0 6 -2 10 -4 10 -3 0
-8 -4 -11 -10z"/>
<path d="M4225 2299 c-4 -6 -5 -12 -2 -15 2 -3 7 2 10 11 7 17 1 20 -8 4z"/>
<path d="M4220 2246 c0 -8 5 -18 10 -21 6 -3 10 1 10 9 0 8 -4 18 -10 21 -5 3
-10 -1 -10 -9z"/>
<path d="M4295 2300 c-4 -6 1 -7 11 -3 12 4 15 3 10 -5 -4 -7 -2 -12 3 -12 6
0 11 7 11 15 0 17 -25 20 -35 5z"/>
<path d="M4290 2270 c0 -8 5 -22 10 -30 9 -13 10 -13 10 0 0 8 -5 22 -10 30
-9 13 -10 13 -10 0z"/>
<path d="M4075 2270 c3 -6 -4 -11 -17 -11 -16 -1 -18 -3 -6 -6 10 -2 25 0 34
5 15 8 15 10 0 15 -10 4 -15 3 -11 -3z"/>
<path d="M3203 1395 c-23 -18 -48 -35 -55 -38 -9 -3 -8 -9 7 -20 38 -30 105 8
105 59 0 35 -11 34 -57 -1z"/>
<path d="M3416 1416 c-4 -36 -4 -71 0 -77 11 -18 93 -5 109 17 21 27 18 78 -4
98 -11 10 -37 20 -59 23 l-39 5 -7 -66z"/>
<path d="M4727 1467 c-10 -6 -20 -29 -24 -49 -10 -67 41 -113 81 -72 23 23 21
89 -4 114 -23 23 -30 24 -53 7z"/>
<path d="M5271 1444 c0 -11 3 -14 6 -6 3 7 2 16 -1 19 -3 4 -6 -2 -5 -13z"/>
<path d="M5282 1383 c-43 -28 -51 -38 -41 -49 17 -20 63 -17 84 6 18 20 29 67
16 74 -4 3 -30 -11 -59 -31z"/>
<path d="M3600 1411 c-10 -20 -8 -21 35 -21 39 0 46 3 43 18 -5 27 -64 29 -78
3z"/>
<path d="M3762 1418 c-28 -28 -3 -88 37 -88 25 0 41 20 41 50 0 31 -17 50 -45
50 -12 0 -26 -5 -33 -12z"/>
</g>
</svg>
